<?xml version="1.0"?>
<svg width="238" height="82" style="background-color: white" xmlns="http://www.w3.org/2000/svg" xmlns:svg="http://www.w3.org/2000/svg" preserveAspectRatio="xMidYMid meet" version="1.0">

 <mask id="7ddf512a-bac1-4531-9f05-07e566c8b7ce">
  <g fill="white" id="svg_1">
   <rect class="i-icon-bg" data-gra="graph-name-bg" height="72.22" id="svg_2" stroke-width="2" width="228.56" x="0" y="0"/>
  </g>
  <g fill="black" id="svg_3" transform="translate(10,10)">
   <g class="tp-name" data-gra="path-name" id="svg_4" transform="matrix(1,0,0,1,0,0)">
    <g id="svg_5" transform="scale(1)">
     <g id="svg_6">
      <path d="m27.39,-29.98l0,0q1.43,0 2.36,0.94q0.94,0.93 0.94,2.42l0,0l0,23.27q0,1.42 -0.94,2.39q-0.93,0.96 -2.36,0.96l0,0q-1.43,0 -2.37,-0.96q-0.93,-0.97 -0.93,-2.39l0,0l0,-2.7l1.21,0.5q0,0.71 -0.77,1.73q-0.77,1.01 -2.09,2.01q-1.32,0.99 -3.11,1.67q-1.78,0.69 -3.87,0.69l0,0q-3.8,0 -6.88,-1.95q-3.08,-1.95 -4.87,-5.39q-1.78,-3.44 -1.78,-7.9l0,0q0,-4.51 1.78,-7.94q1.79,-3.44 4.82,-5.39q3.02,-1.96 6.7,-1.96l0,0q2.37,0 4.35,0.72q1.98,0.71 3.44,1.81q1.46,1.11 2.25,2.23q0.8,1.13 0.8,1.9l0,0l-1.98,0.71l0,-4.01q0,-1.43 0.93,-2.39q0.94,-0.97 2.37,-0.97zm-11.11,24.48l0,0q2.42,0 4.24,-1.21q1.81,-1.21 2.83,-3.3q1.01,-2.09 1.01,-4.68l0,0q0,-2.63 -1.01,-4.72q-1.02,-2.09 -2.83,-3.3q-1.82,-1.22 -4.24,-1.22l0,0q-2.36,0 -4.18,1.22q-1.81,1.21 -2.83,3.3q-1.02,2.09 -1.02,4.72l0,0q0,2.59 1.02,4.68q1.02,2.09 2.83,3.3q1.82,1.21 4.18,1.21zm34.38,-24.48l0,0q3.13,0 5.47,0.66q2.34,0.66 3.63,1.85q1.29,1.18 1.29,2.83l0,0q0,1.1 -0.66,2.06q-0.66,0.97 -1.92,0.97l0,0q-0.88,0 -1.46,-0.25q-0.58,-0.25 -1.02,-0.64q-0.44,-0.38 -1.04,-0.71l0,0q-0.56,-0.33 -1.68,-0.52q-1.13,-0.2 -1.68,-0.2l0,0q-2.81,0 -4.76,1.22q-1.95,1.21 -2.99,3.27q-1.05,2.06 -1.05,4.75l0,0q0,2.65 1.07,4.71q1.08,2.06 2.97,3.27q1.9,1.21 4.37,1.21l0,0q1.38,0 2.37,-0.17q0.99,-0.16 1.65,-0.49l0,0q0.77,-0.44 1.37,-0.93q0.61,-0.5 1.82,-0.5l0,0q1.43,0 2.2,0.91q0.77,0.9 0.77,2.22l0,0q0,1.38 -1.54,2.51q-1.54,1.13 -4.04,1.81q-2.5,0.69 -5.42,0.69l0,0q-4.35,0 -7.54,-2.01q-3.18,-2 -4.92,-5.47q-1.73,-3.46 -1.73,-7.76l0,0q0,-4.51 1.84,-7.94q1.85,-3.44 5.12,-5.39q3.27,-1.96 7.51,-1.96zm15.84,1.1l0,0l13.03,0q1.32,0 2.2,0.88q0.88,0.89 0.88,2.2l0,0q0,1.27 -0.88,2.12q-0.88,0.86 -2.2,0.86l0,0l-13.03,0q-1.33,0 -2.2,-0.89q-0.88,-0.88 -0.88,-2.2l0,0q0,-1.26 0.88,-2.11q0.87,-0.86 2.2,-0.86zm5.88,-6.87l0,0q1.43,0 2.34,0.96q0.91,0.96 0.91,2.39l0,0l0,24.48q0,0.77 0.3,1.26q0.3,0.5 0.82,0.72q0.53,0.22 1.13,0.22l0,0q0.66,0 1.21,-0.25q0.55,-0.24 1.27,-0.24l0,0q0.77,0 1.4,0.71q0.63,0.71 0.63,1.98l0,0q0,1.54 -1.68,2.53q-1.68,0.99 -3.6,0.99l0,0q-1.16,0 -2.56,-0.19q-1.4,-0.2 -2.64,-0.94q-1.23,-0.74 -2.06,-2.28q-0.82,-1.54 -0.82,-4.24l0,0l0,-24.75q0,-1.43 0.96,-2.39q0.96,-0.96 2.39,-0.96zm44.28,21.06l0,0q0,4.51 -2.01,7.95q-2.01,3.44 -5.39,5.36q-3.38,1.93 -7.56,1.93l0,0q-4.18,0 -7.57,-1.93q-3.38,-1.92 -5.39,-5.36q-2.01,-3.44 -2.01,-7.95l0,0q0,-4.51 2.01,-7.94q2.01,-3.44 5.39,-5.39q3.39,-1.96 7.57,-1.96l0,0q4.18,0 7.56,1.96q3.38,1.95 5.39,5.39q2.01,3.43 2.01,7.94zm-6.6,0l0,0q0,-2.8 -1.13,-4.86q-1.13,-2.06 -3.03,-3.22q-1.9,-1.16 -4.2,-1.16l0,0q-2.31,0 -4.21,1.16q-1.9,1.16 -3.03,3.22q-1.12,2.06 -1.12,4.86l0,0q0,2.75 1.12,4.82q1.13,2.06 3.03,3.21q1.9,1.16 4.21,1.16l0,0q2.3,0 4.2,-1.16q1.9,-1.15 3.03,-3.21q1.13,-2.07 1.13,-4.82zm15.4,14.69l0,0q-1.43,0 -2.37,-0.96q-0.93,-0.97 -0.93,-2.39l0,0l0,-22.72q0,-1.43 0.93,-2.39q0.94,-0.97 2.37,-0.97l0,0q1.43,0 2.36,0.97q0.94,0.96 0.94,2.39l0,0l0,5.17l-0.39,-3.69q0.61,-1.32 1.57,-2.33q0.96,-1.02 2.17,-1.71q1.21,-0.69 2.59,-1.01q1.37,-0.34 2.75,-0.34l0,0q1.65,0 2.77,0.94q1.13,0.93 1.13,2.2l0,0q0,1.82 -0.93,2.61q-0.94,0.8 -2.04,0.8l0,0q-1.04,0 -1.9,-0.39q-0.85,-0.38 -1.95,-0.38l0,0q-0.99,0 -2.01,0.47q-1.01,0.46 -1.87,1.46q-0.85,0.98 -1.37,2.44q-0.52,1.46 -0.52,3.44l0,0l0,13.04q0,1.42 -0.94,2.39q-0.93,0.96 -2.36,0.96zm42.79,0l0,0q-1.38,0 -2.31,-0.96q-0.94,-0.97 -0.94,-2.39l0,0l0,-25.86l1.16,0.28l-10.62,13.14l-0.27,-0.71l18.64,0q1.32,0 2.2,0.88q0.88,0.88 0.88,2.2l0,0q0,1.27 -0.88,2.12q-0.88,0.85 -2.2,0.85l0,0l-23.21,0q-1.15,0 -2.23,-0.93q-1.07,-0.94 -1.07,-2.32l0,0q0,-1.2 0.83,-2.19l0,0l17.38,-21.29q0.44,-0.61 1.15,-0.96q0.72,-0.36 1.6,-0.36l0,0q1.43,0 2.33,0.96q0.91,0.96 0.91,2.39l0,0l0,31.8q0,1.42 -0.96,2.39q-0.96,0.96 -2.39,0.96zm20.57,0l0,0q-1.43,0 -2.37,-0.96q-0.93,-0.97 -0.93,-2.39l0,0l0,-33.99q0,-1.43 0.93,-2.4q0.94,-0.96 2.37,-0.96l0,0q1.43,0 2.36,0.96q0.94,0.97 0.94,2.4l0,0l0,33.99q0,1.42 -0.94,2.39q-0.93,0.96 -2.36,0.96zm17.49,-29.43l0,0q1.26,0 2.2,1.05q0.93,1.04 0.93,2.04l0,0q0,1.32 -1.32,2.47l0,0l-16.55,15.24l-0.28,-7.6l12.6,-12.15q1.04,-1.05 2.42,-1.05zm0.82,29.37l0,0q-1.43,0 -2.42,-1.1l0,0l-10.17,-10.78l5,-4.61l9.9,10.77q1.05,1.11 1.05,2.48l0,0q0,1.43 -1.13,2.34q-1.13,0.9 -2.23,0.9z" id="svg_7" transform="translate(-1.9300000667572021, 40.70000076293945)"/>
     </g>
    </g>
   </g>
   <g class="tp-slogan" data-gra="path-slogan" id="svg_8" transform="matrix(1,0,0,1,0.36000823974609375,47.25)">
    <g id="svg_9" transform="scale(1, 1)">
     <g id="svg_10" transform="scale(1)">
      <path d="m0.49,-3.59l0,3.59l0.46,0l0,-3.59l-0.46,0zm1.94,0.38l0,3.21l0.46,0l0,-3.21l1.09,0l0,-0.38l-2.63,0l0,0.38l1.08,0zm2.8,-0.38l0,3.59l0.46,0l0,-3.59l-0.46,0zm1.21,2.81l-0.28,0.31c0.16,0.17 0.35,0.3 0.56,0.39c0.22,0.1 0.45,0.15 0.7,0.15c0.19,0 0.36,-0.03 0.51,-0.08c0.15,-0.06 0.28,-0.13 0.39,-0.22c0.1,-0.1 0.18,-0.2 0.24,-0.33c0.06,-0.12 0.08,-0.26 0.08,-0.4c0,-0.13 -0.01,-0.25 -0.05,-0.35c-0.04,-0.1 -0.09,-0.18 -0.16,-0.26c-0.06,-0.07 -0.14,-0.14 -0.23,-0.2c-0.1,-0.05 -0.19,-0.1 -0.3,-0.15l-0.5,-0.22c-0.08,-0.03 -0.15,-0.06 -0.22,-0.09c-0.07,-0.04 -0.13,-0.08 -0.19,-0.12c-0.06,-0.05 -0.1,-0.1 -0.14,-0.16c-0.03,-0.06 -0.05,-0.14 -0.05,-0.22c0,-0.17 0.06,-0.3 0.18,-0.39c0.12,-0.09 0.29,-0.14 0.49,-0.14c0.16,0 0.32,0.03 0.45,0.09c0.13,0.06 0.25,0.14 0.36,0.25l0.25,-0.3c-0.13,-0.13 -0.28,-0.23 -0.47,-0.32c-0.18,-0.08 -0.38,-0.12 -0.59,-0.12c-0.17,0 -0.32,0.02 -0.46,0.07c-0.13,0.05 -0.25,0.12 -0.35,0.2c-0.1,0.09 -0.18,0.19 -0.24,0.31c-0.05,0.11 -0.08,0.24 -0.08,0.37c0,0.14 0.02,0.25 0.06,0.35c0.05,0.1 0.1,0.19 0.17,0.26c0.07,0.07 0.15,0.14 0.24,0.19c0.09,0.05 0.17,0.09 0.26,0.13l0.51,0.22c0.09,0.04 0.16,0.08 0.24,0.12c0.07,0.04 0.13,0.08 0.19,0.12c0.05,0.05 0.09,0.1 0.12,0.17c0.03,0.06 0.05,0.14 0.05,0.23c0,0.17 -0.07,0.32 -0.2,0.42c-0.13,0.11 -0.31,0.17 -0.55,0.17c-0.19,0 -0.37,-0.05 -0.54,-0.13c-0.17,-0.08 -0.33,-0.19 -0.45,-0.32zm5.05,-0.68l-1.08,0l0.17,-0.55c0.07,-0.2 0.13,-0.4 0.19,-0.6c0.06,-0.2 0.11,-0.4 0.17,-0.61l0.02,0c0.06,0.21 0.12,0.41 0.17,0.61c0.06,0.2 0.12,0.4 0.19,0.6l0.17,0.55zm0.12,0.36l0.34,1.1l0.48,0l-1.21,-3.59l-0.52,0l-1.21,3.59l0.46,0l0.35,-1.1l1.31,0zm1.95,0.32l-0.27,0.31c0.16,0.17 0.34,0.3 0.56,0.39c0.21,0.1 0.45,0.15 0.7,0.15c0.19,0 0.36,-0.03 0.51,-0.08c0.15,-0.06 0.28,-0.13 0.38,-0.22c0.11,-0.1 0.19,-0.2 0.25,-0.33c0.05,-0.12 0.08,-0.26 0.08,-0.4c0,-0.13 -0.02,-0.25 -0.06,-0.35c-0.03,-0.1 -0.09,-0.18 -0.15,-0.26c-0.07,-0.07 -0.15,-0.14 -0.24,-0.2c-0.09,-0.05 -0.19,-0.1 -0.29,-0.15l-0.51,-0.22c-0.07,-0.03 -0.14,-0.06 -0.21,-0.09c-0.07,-0.04 -0.13,-0.08 -0.19,-0.12c-0.06,-0.05 -0.11,-0.1 -0.14,-0.16c-0.04,-0.06 -0.05,-0.14 -0.05,-0.22c0,-0.17 0.06,-0.3 0.18,-0.39c0.12,-0.09 0.28,-0.14 0.48,-0.14c0.17,0 0.32,0.03 0.46,0.09c0.13,0.06 0.25,0.14 0.36,0.25l0.25,-0.3c-0.13,-0.13 -0.29,-0.23 -0.47,-0.32c-0.18,-0.08 -0.38,-0.12 -0.6,-0.12c-0.16,0 -0.31,0.02 -0.45,0.07c-0.14,0.05 -0.25,0.12 -0.35,0.2c-0.1,0.09 -0.18,0.19 -0.24,0.31c-0.06,0.11 -0.08,0.24 -0.08,0.37c0,0.14 0.02,0.25 0.06,0.35c0.04,0.1 0.1,0.19 0.17,0.26c0.07,0.07 0.15,0.14 0.24,0.19c0.08,0.05 0.17,0.09 0.25,0.13l0.52,0.22c0.08,0.04 0.16,0.08 0.23,0.12c0.08,0.04 0.14,0.08 0.19,0.12c0.06,0.05 0.1,0.1 0.13,0.17c0.03,0.06 0.05,0.14 0.05,0.23c0,0.17 -0.07,0.32 -0.2,0.42c-0.13,0.11 -0.32,0.17 -0.55,0.17c-0.19,0 -0.37,-0.05 -0.54,-0.13c-0.18,-0.08 -0.33,-0.19 -0.46,-0.32zm2.67,-2.81l0,3.59l0.42,0l0,-1.98c0,-0.16 -0.01,-0.34 -0.02,-0.53c-0.01,-0.19 -0.03,-0.37 -0.04,-0.53l0.02,0l0.29,0.8l0.69,1.88l0.26,0l0.69,-1.88l0.29,-0.8l0.02,0c-0.01,0.16 -0.02,0.34 -0.04,0.53c-0.01,0.19 -0.02,0.37 -0.02,0.53l0,1.98l0.44,0l0,-3.59l-0.54,0l-0.69,1.92l-0.25,0.74l-0.02,0l-0.27,-0.74l-0.69,-1.92l-0.54,0zm5.26,2.13l-1.08,0l0.17,-0.55c0.07,-0.2 0.13,-0.4 0.19,-0.6c0.06,-0.2 0.12,-0.4 0.17,-0.61l0.02,0c0.06,0.21 0.12,0.41 0.18,0.61c0.06,0.2 0.12,0.4 0.18,0.6l0.17,0.55zm0.12,0.36l0.34,1.1l0.49,0l-1.22,-3.59l-0.52,0l-1.21,3.59l0.46,0l0.35,-1.1l1.31,0zm1.09,-2.49l0,3.59l2.02,0l0,-0.39l-1.57,0l0,-3.2l-0.45,0zm2.41,0l0,3.59l2.03,0l0,-0.39l-1.57,0l0,-3.2l-0.46,0zm4.8,2.13l-1.08,0l0.17,-0.55c0.07,-0.2 0.13,-0.4 0.19,-0.6c0.06,-0.2 0.12,-0.4 0.17,-0.61l0.02,0c0.06,0.21 0.12,0.41 0.18,0.61c0.06,0.2 0.12,0.4 0.18,0.6l0.17,0.55zm0.12,0.36l0.34,1.1l0.49,0l-1.22,-3.59l-0.52,0l-1.21,3.59l0.46,0l0.35,-1.1l1.31,0zm1.09,-2.49l0,3.59l0.43,0l0,-1.88c0,-0.19 -0.01,-0.38 -0.02,-0.57c-0.01,-0.18 -0.03,-0.37 -0.04,-0.55l0.02,0l0.39,0.74l1.3,2.26l0.48,0l0,-3.59l-0.44,0l0,1.85c0,0.19 0.01,0.39 0.02,0.58c0.01,0.2 0.03,0.39 0.04,0.57l-0.02,0l-0.39,-0.75l-1.3,-2.25l-0.47,0zm3.29,0l0,3.59l0.92,0c0.27,0 0.51,-0.04 0.72,-0.12c0.21,-0.09 0.38,-0.2 0.53,-0.36c0.14,-0.15 0.25,-0.34 0.32,-0.57c0.07,-0.22 0.11,-0.48 0.11,-0.76c0,-0.58 -0.14,-1.02 -0.43,-1.32c-0.29,-0.31 -0.71,-0.46 -1.27,-0.46l-0.9,0zm0.87,3.22l-0.41,0l0,-2.85l0.41,0c0.42,0 0.73,0.12 0.94,0.36c0.21,0.24 0.32,0.59 0.32,1.05c0,0.45 -0.11,0.81 -0.32,1.06c-0.21,0.25 -0.52,0.38 -0.94,0.38zm3.12,-0.41l-0.27,0.31c0.16,0.17 0.34,0.3 0.56,0.39c0.21,0.1 0.45,0.15 0.7,0.15c0.19,0 0.36,-0.03 0.51,-0.08c0.15,-0.06 0.28,-0.13 0.38,-0.22c0.11,-0.1 0.19,-0.2 0.25,-0.33c0.05,-0.12 0.08,-0.26 0.08,-0.4c0,-0.13 -0.02,-0.25 -0.06,-0.35c-0.03,-0.1 -0.09,-0.18 -0.15,-0.26c-0.07,-0.07 -0.15,-0.14 -0.24,-0.2c-0.09,-0.05 -0.19,-0.1 -0.29,-0.15l-0.51,-0.22c-0.07,-0.03 -0.14,-0.06 -0.21,-0.09c-0.07,-0.04 -0.13,-0.08 -0.19,-0.12c-0.06,-0.05 -0.11,-0.1 -0.14,-0.16c-0.04,-0.06 -0.05,-0.14 -0.05,-0.22c0,-0.17 0.06,-0.3 0.18,-0.39c0.12,-0.09 0.28,-0.14 0.48,-0.14c0.17,0 0.32,0.03 0.46,0.09c0.13,0.06 0.25,0.14 0.36,0.25l0.25,-0.3c-0.13,-0.13 -0.29,-0.23 -0.47,-0.32c-0.18,-0.08 -0.38,-0.12 -0.6,-0.12c-0.16,0 -0.31,0.02 -0.45,0.07c-0.13,0.05 -0.25,0.12 -0.35,0.2c-0.1,0.09 -0.18,0.19 -0.24,0.31c-0.06,0.11 -0.08,0.24 -0.08,0.37c0,0.14 0.02,0.25 0.06,0.35c0.05,0.1 0.1,0.19 0.17,0.26c0.07,0.07 0.15,0.14 0.24,0.19c0.08,0.05 0.17,0.09 0.25,0.13l0.52,0.22c0.08,0.04 0.16,0.08 0.23,0.12c0.08,0.04 0.14,0.08 0.19,0.12c0.06,0.05 0.1,0.1 0.13,0.17c0.03,0.06 0.05,0.14 0.05,0.23c0,0.17 -0.07,0.32 -0.2,0.42c-0.13,0.11 -0.32,0.17 -0.55,0.17c-0.19,0 -0.37,-0.05 -0.54,-0.13c-0.18,-0.08 -0.33,-0.19 -0.46,-0.32zm2.67,-2.81l0,3.59l0.46,0l0,-3.59l-0.46,0zm1.19,0l0,3.59l0.43,0l0,-1.98c0,-0.16 -0.01,-0.34 -0.03,-0.53c-0.01,-0.19 -0.02,-0.37 -0.03,-0.53l0.02,0l0.28,0.8l0.7,1.88l0.26,0l0.69,-1.88l0.29,-0.8l0.02,0c-0.02,0.16 -0.03,0.34 -0.04,0.53c-0.02,0.19 -0.02,0.37 -0.02,0.53l0,1.98l0.43,0l0,-3.59l-0.54,0l-0.69,1.92l-0.25,0.74l-0.02,0l-0.26,-0.74l-0.7,-1.92l-0.54,0zm3.74,0l0,3.59l0.45,0l0,-1.42l0.65,0c0.2,0 0.38,-0.03 0.54,-0.07c0.16,-0.05 0.3,-0.12 0.42,-0.21c0.11,-0.09 0.21,-0.2 0.27,-0.34c0.06,-0.14 0.09,-0.31 0.09,-0.5c0,-0.19 -0.03,-0.36 -0.09,-0.49c-0.06,-0.14 -0.15,-0.25 -0.27,-0.33c-0.11,-0.08 -0.25,-0.14 -0.42,-0.18c-0.16,-0.04 -0.34,-0.05 -0.54,-0.05l-1.1,0zm1.04,1.79l-0.59,0l0,-1.43l0.59,0c0.31,0 0.55,0.05 0.7,0.15c0.15,0.1 0.23,0.28 0.23,0.54c0,0.26 -0.08,0.45 -0.23,0.57c-0.15,0.11 -0.38,0.17 -0.7,0.17zm1.87,-1.79l0,3.59l2.02,0l0,-0.39l-1.57,0l0,-3.2l-0.45,0zm2.41,0l0,3.59l2.13,0l0,-0.39l-1.68,0l0,-1.3l1.37,0l0,-0.39l-1.37,0l0,-1.13l1.62,0l0,-0.38l-2.07,0zm5.03,2.13l-1.08,0l0.17,-0.55c0.06,-0.2 0.12,-0.4 0.18,-0.6c0.06,-0.2 0.12,-0.4 0.17,-0.61l0.02,0c0.06,0.21 0.12,0.41 0.18,0.61c0.06,0.2 0.12,0.4 0.19,0.6l0.17,0.55zm0.11,0.36l0.34,1.1l0.49,0l-1.22,-3.59l-0.51,0l-1.22,3.59l0.47,0l0.34,-1.1l1.31,0zm0.83,-0.7c0,0.3 0.04,0.56 0.11,0.79c0.08,0.23 0.19,0.43 0.33,0.59c0.14,0.15 0.31,0.28 0.5,0.36c0.19,0.08 0.4,0.13 0.63,0.13c0.23,0 0.43,-0.05 0.61,-0.14c0.18,-0.09 0.34,-0.22 0.48,-0.38l-0.25,-0.28c-0.12,0.12 -0.24,0.22 -0.37,0.29c-0.13,0.07 -0.28,0.11 -0.46,0.11c-0.17,0 -0.33,-0.04 -0.46,-0.11c-0.14,-0.07 -0.26,-0.17 -0.35,-0.29c-0.1,-0.13 -0.17,-0.29 -0.22,-0.47c-0.06,-0.18 -0.08,-0.38 -0.08,-0.61c0,-0.22 0.03,-0.42 0.08,-0.6c0.06,-0.18 0.13,-0.33 0.23,-0.46c0.1,-0.12 0.22,-0.22 0.36,-0.29c0.14,-0.07 0.29,-0.1 0.46,-0.1c0.16,0 0.29,0.03 0.4,0.09c0.12,0.06 0.22,0.14 0.32,0.24l0.26,-0.29c-0.11,-0.11 -0.24,-0.22 -0.41,-0.31c-0.16,-0.08 -0.35,-0.13 -0.57,-0.13c-0.23,0 -0.45,0.04 -0.64,0.13c-0.2,0.09 -0.37,0.21 -0.51,0.37c-0.14,0.16 -0.25,0.36 -0.33,0.59c-0.08,0.23 -0.12,0.48 -0.12,0.77zm3.73,-1.41l0,3.21l0.46,0l0,-3.21l1.09,0l0,-0.38l-2.63,0l0,0.38l1.08,0zm3.14,3.28c0.23,0 0.43,-0.05 0.62,-0.14c0.19,-0.08 0.35,-0.21 0.49,-0.37c0.14,-0.16 0.24,-0.36 0.32,-0.59c0.07,-0.23 0.11,-0.49 0.11,-0.78c0,-0.29 -0.04,-0.54 -0.11,-0.77c-0.08,-0.23 -0.18,-0.42 -0.32,-0.58c-0.14,-0.16 -0.3,-0.28 -0.49,-0.37c-0.19,-0.09 -0.39,-0.13 -0.62,-0.13c-0.23,0 -0.43,0.04 -0.62,0.13c-0.19,0.08 -0.35,0.2 -0.49,0.36c-0.13,0.16 -0.24,0.35 -0.31,0.58c-0.08,0.23 -0.11,0.49 -0.11,0.78c0,0.29 0.03,0.55 0.11,0.78c0.07,0.23 0.18,0.43 0.31,0.59c0.14,0.16 0.3,0.29 0.49,0.37c0.19,0.09 0.39,0.14 0.62,0.14zm0,-0.4c-0.16,0 -0.31,-0.04 -0.44,-0.11c-0.13,-0.07 -0.24,-0.17 -0.33,-0.3c-0.09,-0.13 -0.17,-0.28 -0.22,-0.46c-0.05,-0.18 -0.07,-0.39 -0.07,-0.61c0,-0.23 0.02,-0.43 0.07,-0.61c0.05,-0.17 0.13,-0.33 0.22,-0.45c0.09,-0.12 0.2,-0.22 0.33,-0.29c0.13,-0.07 0.28,-0.1 0.44,-0.1c0.16,0 0.31,0.03 0.43,0.1c0.13,0.07 0.25,0.17 0.34,0.29c0.09,0.12 0.16,0.28 0.22,0.45c0.05,0.18 0.07,0.38 0.07,0.61c0,0.22 -0.02,0.43 -0.07,0.61c-0.06,0.18 -0.13,0.33 -0.22,0.46c-0.09,0.13 -0.21,0.23 -0.34,0.3c-0.12,0.07 -0.27,0.11 -0.43,0.11zm2.52,-1.56l0,-1.34l0.6,0c0.28,0 0.5,0.05 0.65,0.15c0.15,0.09 0.22,0.26 0.22,0.49c0,0.24 -0.07,0.41 -0.22,0.53c-0.15,0.11 -0.37,0.17 -0.65,0.17l-0.6,0zm1.52,1.89l0.51,0l-0.91,-1.57c0.25,-0.06 0.44,-0.17 0.59,-0.34c0.14,-0.17 0.22,-0.39 0.22,-0.68c0,-0.18 -0.03,-0.34 -0.1,-0.47c-0.06,-0.12 -0.15,-0.23 -0.26,-0.31c-0.11,-0.08 -0.24,-0.14 -0.4,-0.17c-0.15,-0.04 -0.32,-0.05 -0.5,-0.05l-1.13,0l0,3.59l0.46,0l0,-1.52l0.65,0l0.87,1.52zm1.83,-0.78l-0.28,0.31c0.16,0.17 0.35,0.3 0.56,0.39c0.22,0.1 0.45,0.15 0.7,0.15c0.19,0 0.36,-0.03 0.51,-0.08c0.15,-0.06 0.28,-0.13 0.39,-0.22c0.1,-0.1 0.18,-0.2 0.24,-0.33c0.06,-0.12 0.09,-0.26 0.09,-0.4c0,-0.13 -0.02,-0.25 -0.06,-0.35c-0.04,-0.1 -0.09,-0.18 -0.16,-0.26c-0.06,-0.07 -0.14,-0.14 -0.23,-0.2c-0.1,-0.05 -0.19,-0.1 -0.29,-0.15l-0.51,-0.22c-0.08,-0.03 -0.15,-0.06 -0.22,-0.09c-0.07,-0.04 -0.13,-0.08 -0.19,-0.12c-0.06,-0.05 -0.1,-0.1 -0.14,-0.16c-0.03,-0.06 -0.05,-0.14 -0.05,-0.22c0,-0.17 0.06,-0.3 0.18,-0.39c0.13,-0.09 0.29,-0.14 0.49,-0.14c0.17,0 0.32,0.03 0.45,0.09c0.13,0.06 0.25,0.14 0.36,0.25l0.25,-0.3c-0.13,-0.13 -0.28,-0.23 -0.47,-0.32c-0.18,-0.08 -0.38,-0.12 -0.59,-0.12c-0.17,0 -0.32,0.02 -0.45,0.07c-0.14,0.05 -0.26,0.12 -0.36,0.2c-0.1,0.09 -0.18,0.19 -0.24,0.31c-0.05,0.11 -0.08,0.24 -0.08,0.37c0,0.14 0.02,0.25 0.06,0.35c0.05,0.1 0.11,0.19 0.17,0.26c0.07,0.07 0.15,0.14 0.24,0.19c0.09,0.05 0.17,0.09 0.26,0.13l0.51,0.22c0.09,0.04 0.17,0.08 0.24,0.12c0.07,0.04 0.13,0.08 0.19,0.12c0.05,0.05 0.09,0.1 0.12,0.17c0.03,0.06 0.05,0.14 0.05,0.23c0,0.17 -0.07,0.32 -0.2,0.42c-0.13,0.11 -0.31,0.17 -0.55,0.17c-0.19,0 -0.37,-0.05 -0.54,-0.13c-0.17,-0.08 -0.32,-0.19 -0.45,-0.32zm3.21,-0.61l0,1.39l0.46,0l0,-1.39l1.08,-2.2l-0.48,0l-0.46,1.01c-0.06,0.13 -0.11,0.26 -0.18,0.39c-0.06,0.13 -0.12,0.26 -0.18,0.39l-0.02,0c-0.07,-0.13 -0.12,-0.26 -0.18,-0.39c-0.05,-0.13 -0.11,-0.26 -0.17,-0.39l-0.47,-1.01l-0.48,0l1.08,2.2zm1.7,0.61l-0.27,0.31c0.15,0.17 0.34,0.3 0.55,0.39c0.22,0.1 0.45,0.15 0.7,0.15c0.19,0 0.36,-0.03 0.51,-0.08c0.15,-0.06 0.28,-0.13 0.39,-0.22c0.1,-0.1 0.19,-0.2 0.24,-0.33c0.06,-0.12 0.09,-0.26 0.09,-0.4c0,-0.13 -0.02,-0.25 -0.06,-0.35c-0.04,-0.1 -0.09,-0.18 -0.16,-0.26c-0.06,-0.07 -0.14,-0.14 -0.23,-0.2c-0.09,-0.05 -0.19,-0.1 -0.29,-0.15l-0.51,-0.22c-0.08,-0.03 -0.15,-0.06 -0.22,-0.09c-0.07,-0.04 -0.13,-0.08 -0.19,-0.12c-0.06,-0.05 -0.1,-0.1 -0.14,-0.16c-0.03,-0.06 -0.05,-0.14 -0.05,-0.22c0,-0.17 0.06,-0.3 0.18,-0.39c0.13,-0.09 0.29,-0.14 0.49,-0.14c0.17,0 0.32,0.03 0.45,0.09c0.13,0.06 0.26,0.14 0.37,0.25l0.24,-0.3c-0.13,-0.13 -0.28,-0.23 -0.46,-0.32c-0.19,-0.08 -0.39,-0.12 -0.6,-0.12c-0.17,0 -0.32,0.02 -0.45,0.07c-0.14,0.05 -0.26,0.12 -0.36,0.2c-0.1,0.09 -0.18,0.19 -0.23,0.31c-0.06,0.11 -0.09,0.24 -0.09,0.37c0,0.14 0.02,0.25 0.07,0.35c0.04,0.1 0.1,0.19 0.17,0.26c0.07,0.07 0.14,0.14 0.23,0.19c0.09,0.05 0.17,0.09 0.26,0.13l0.51,0.22c0.09,0.04 0.17,0.08 0.24,0.12c0.07,0.04 0.14,0.08 0.19,0.12c0.05,0.05 0.09,0.1 0.12,0.17c0.04,0.06 0.05,0.14 0.05,0.23c0,0.17 -0.06,0.32 -0.2,0.42c-0.13,0.11 -0.31,0.17 -0.55,0.17c-0.19,0 -0.37,-0.05 -0.54,-0.13c-0.17,-0.08 -0.32,-0.19 -0.45,-0.32zm3.3,-2.43l0,3.21l0.46,0l0,-3.21l1.09,0l0,-0.38l-2.63,0l0,0.38l1.08,0zm1.94,-0.38l0,3.59l2.13,0l0,-0.39l-1.67,0l0,-1.3l1.36,0l0,-0.39l-1.36,0l0,-1.13l1.61,0l0,-0.38l-2.07,0zm2.64,0l0,3.59l0.43,0l0,-1.98c0,-0.16 -0.01,-0.34 -0.03,-0.53c-0.01,-0.19 -0.02,-0.37 -0.04,-0.53l0.03,0l0.28,0.8l0.7,1.88l0.25,0l0.69,-1.88l0.3,-0.8l0.02,0c-0.02,0.16 -0.03,0.34 -0.04,0.53c-0.02,0.19 -0.02,0.37 -0.02,0.53l0,1.98l0.43,0l0,-3.59l-0.54,0l-0.69,1.92l-0.25,0.74l-0.02,0l-0.26,-0.74l-0.7,-1.92l-0.54,0zm4.58,0l0,2.11c0,0.28 0.03,0.53 0.1,0.72c0.06,0.2 0.15,0.36 0.27,0.48c0.12,0.13 0.25,0.21 0.41,0.27c0.16,0.05 0.33,0.08 0.51,0.08c0.19,0 0.36,-0.03 0.51,-0.08c0.16,-0.06 0.3,-0.14 0.41,-0.27c0.12,-0.12 0.21,-0.28 0.27,-0.48c0.07,-0.19 0.1,-0.44 0.1,-0.72l0,-2.11l-0.44,0l0,2.12c0,0.21 -0.02,0.39 -0.06,0.54c-0.05,0.14 -0.11,0.26 -0.18,0.35c-0.08,0.09 -0.17,0.15 -0.27,0.19c-0.11,0.04 -0.22,0.06 -0.34,0.06c-0.11,0 -0.22,-0.02 -0.33,-0.06c-0.1,-0.04 -0.19,-0.1 -0.26,-0.19c-0.08,-0.09 -0.14,-0.21 -0.18,-0.35c-0.04,-0.15 -0.07,-0.33 -0.07,-0.54l0,-2.12l-0.45,0zm3.26,2.81l-0.28,0.31c0.16,0.17 0.35,0.3 0.56,0.39c0.22,0.1 0.45,0.15 0.7,0.15c0.19,0 0.36,-0.03 0.51,-0.08c0.15,-0.06 0.28,-0.13 0.39,-0.22c0.1,-0.1 0.18,-0.2 0.24,-0.33c0.06,-0.12 0.09,-0.26 0.09,-0.4c0,-0.13 -0.02,-0.25 -0.06,-0.35c-0.04,-0.1 -0.09,-0.18 -0.16,-0.26c-0.06,-0.07 -0.14,-0.14 -0.23,-0.2c-0.09,-0.05 -0.19,-0.1 -0.29,-0.15l-0.51,-0.22c-0.08,-0.03 -0.15,-0.06 -0.22,-0.09c-0.07,-0.04 -0.13,-0.08 -0.19,-0.12c-0.06,-0.05 -0.1,-0.1 -0.14,-0.16c-0.03,-0.06 -0.05,-0.14 -0.05,-0.22c0,-0.17 0.06,-0.3 0.18,-0.39c0.13,-0.09 0.29,-0.14 0.49,-0.14c0.17,0 0.32,0.03 0.45,0.09c0.13,0.06 0.25,0.14 0.36,0.25l0.25,-0.3c-0.13,-0.13 -0.28,-0.23 -0.46,-0.32c-0.19,-0.08 -0.39,-0.12 -0.6,-0.12c-0.17,0 -0.32,0.02 -0.45,0.07c-0.14,0.05 -0.26,0.12 -0.36,0.2c-0.1,0.09 -0.18,0.19 -0.24,0.31c-0.05,0.11 -0.08,0.24 -0.08,0.37c0,0.14 0.02,0.25 0.07,0.35c0.04,0.1 0.1,0.19 0.17,0.26c0.06,0.07 0.14,0.14 0.23,0.19c0.09,0.05 0.17,0.09 0.26,0.13l0.51,0.22c0.09,0.04 0.17,0.08 0.24,0.12c0.07,0.04 0.13,0.08 0.19,0.12c0.05,0.05 0.09,0.1 0.12,0.17c0.03,0.06 0.05,0.14 0.05,0.23c0,0.17 -0.07,0.32 -0.2,0.42c-0.13,0.11 -0.31,0.17 -0.55,0.17c-0.19,0 -0.37,-0.05 -0.54,-0.13c-0.17,-0.08 -0.32,-0.19 -0.45,-0.32zm2.66,-2.81l0,3.59l0.46,0l0,-3.59l-0.46,0zm1.2,0l0,3.59l0.43,0l0,-1.88c0,-0.19 -0.01,-0.38 -0.02,-0.57c-0.01,-0.18 -0.03,-0.37 -0.04,-0.55l0.02,0l0.39,0.74l1.3,2.26l0.48,0l0,-3.59l-0.44,0l0,1.85c0,0.19 0.01,0.39 0.02,0.58c0.02,0.2 0.03,0.39 0.04,0.57l-0.02,0l-0.39,-0.75l-1.3,-2.25l-0.47,0zm3.09,1.79c0,0.3 0.04,0.56 0.12,0.79c0.08,0.23 0.19,0.43 0.33,0.59c0.14,0.15 0.31,0.28 0.51,0.36c0.2,0.08 0.41,0.13 0.65,0.13c0.24,0 0.46,-0.04 0.65,-0.12c0.19,-0.08 0.35,-0.18 0.46,-0.3l0,-1.51l-1.17,0l0,0.38l0.76,0l0,0.93c-0.08,0.07 -0.17,0.12 -0.28,0.16c-0.12,0.04 -0.24,0.06 -0.37,0.06c-0.19,0 -0.36,-0.04 -0.51,-0.11c-0.15,-0.07 -0.27,-0.17 -0.37,-0.29c-0.1,-0.13 -0.18,-0.29 -0.23,-0.47c-0.06,-0.18 -0.08,-0.38 -0.08,-0.61c0,-0.22 0.03,-0.42 0.08,-0.6c0.06,-0.18 0.14,-0.33 0.24,-0.46c0.1,-0.12 0.23,-0.22 0.37,-0.29c0.15,-0.07 0.31,-0.1 0.5,-0.1c0.18,0 0.33,0.03 0.45,0.1c0.12,0.06 0.22,0.14 0.31,0.23l0.26,-0.29c-0.11,-0.11 -0.24,-0.21 -0.41,-0.3c-0.16,-0.09 -0.37,-0.14 -0.62,-0.14c-0.24,0 -0.46,0.04 -0.66,0.13c-0.2,0.09 -0.38,0.21 -0.53,0.37c-0.14,0.16 -0.26,0.36 -0.34,0.59c-0.08,0.23 -0.12,0.48 -0.12,0.77zm4.19,-1.79l0,3.59l0.46,0l0,-1.14l0.62,-0.73l1.07,1.87l0.51,0l-1.3,-2.22l1.13,-1.37l-0.52,0l-1.49,1.8l-0.02,0l0,-1.8l-0.46,0zm4.13,3.66c0.23,0 0.44,-0.05 0.63,-0.14c0.18,-0.08 0.35,-0.21 0.48,-0.37c0.14,-0.16 0.25,-0.36 0.32,-0.59c0.08,-0.23 0.11,-0.49 0.11,-0.78c0,-0.29 -0.03,-0.54 -0.11,-0.77c-0.07,-0.23 -0.18,-0.42 -0.32,-0.58c-0.13,-0.16 -0.3,-0.28 -0.48,-0.37c-0.19,-0.09 -0.4,-0.13 -0.63,-0.13c-0.22,0 -0.43,0.04 -0.62,0.13c-0.19,0.08 -0.35,0.2 -0.48,0.36c-0.14,0.16 -0.24,0.35 -0.32,0.58c-0.07,0.23 -0.11,0.49 -0.11,0.78c0,0.29 0.04,0.55 0.11,0.78c0.08,0.23 0.18,0.43 0.32,0.59c0.13,0.16 0.29,0.29 0.48,0.37c0.19,0.09 0.4,0.14 0.62,0.14zm0,-0.4c-0.16,0 -0.3,-0.04 -0.43,-0.11c-0.13,-0.07 -0.24,-0.17 -0.34,-0.3c-0.09,-0.13 -0.16,-0.28 -0.21,-0.46c-0.05,-0.18 -0.08,-0.39 -0.08,-0.61c0,-0.23 0.03,-0.43 0.08,-0.61c0.05,-0.17 0.12,-0.33 0.21,-0.45c0.1,-0.12 0.21,-0.22 0.34,-0.29c0.13,-0.07 0.27,-0.1 0.43,-0.1c0.16,0 0.31,0.03 0.44,0.1c0.13,0.07 0.24,0.17 0.33,0.29c0.1,0.12 0.17,0.28 0.22,0.45c0.05,0.18 0.08,0.38 0.08,0.61c0,0.22 -0.03,0.43 -0.08,0.61c-0.05,0.18 -0.12,0.33 -0.22,0.46c-0.09,0.13 -0.2,0.23 -0.33,0.3c-0.13,0.07 -0.28,0.11 -0.44,0.11zm2.7,-2.88l0,3.21l0.46,0l0,-3.21l1.09,0l0,-0.38l-2.63,0l0,0.38l1.08,0zm1.95,-0.38l0,3.59l2.02,0l0,-0.39l-1.57,0l0,-3.2l-0.45,0zm2.41,0l0,3.59l0.46,0l0,-3.59l-0.46,0zm1.19,0l0,3.59l0.44,0l0,-1.88c0,-0.19 -0.01,-0.38 -0.02,-0.57c-0.02,-0.18 -0.03,-0.37 -0.04,-0.55l0.02,0l0.39,0.74l1.3,2.26l0.47,0l0,-3.59l-0.43,0l0,1.85c0,0.19 0.01,0.39 0.02,0.58c0.01,0.2 0.02,0.39 0.03,0.57l-0.02,0l-0.39,-0.75l-1.29,-2.25l-0.48,0zm5.69,2.13l-1.08,0l0.17,-0.55c0.06,-0.2 0.13,-0.4 0.18,-0.6c0.06,-0.2 0.12,-0.4 0.17,-0.61l0.03,0c0.05,0.21 0.11,0.41 0.17,0.61c0.06,0.2 0.12,0.4 0.19,0.6l0.17,0.55zm0.11,0.36l0.34,1.1l0.49,0l-1.22,-3.59l-0.51,0l-1.22,3.59l0.47,0l0.34,-1.1l1.31,0zm1.09,-2.49l0,3.59l0.43,0l0,-1.88c0,-0.19 0,-0.38 -0.02,-0.57c-0.01,-0.18 -0.02,-0.37 -0.04,-0.55l0.03,0l0.38,0.74l1.31,2.26l0.47,0l0,-3.59l-0.43,0l0,1.85c0,0.19 0,0.39 0.02,0.58c0.01,0.2 0.02,0.39 0.03,0.57l-0.02,0l-0.39,-0.75l-1.3,-2.25l-0.47,0zm3.3,0l0,3.59l0.92,0c0.27,0 0.51,-0.04 0.72,-0.12c0.2,-0.09 0.38,-0.2 0.52,-0.36c0.14,-0.15 0.25,-0.34 0.32,-0.57c0.08,-0.22 0.11,-0.48 0.11,-0.76c0,-0.58 -0.14,-1.02 -0.43,-1.32c-0.29,-0.31 -0.71,-0.46 -1.26,-0.46l-0.9,0zm0.86,3.22l-0.41,0l0,-2.85l0.41,0c0.42,0 0.74,0.12 0.95,0.36c0.21,0.24 0.31,0.59 0.31,1.05c0,0.45 -0.1,0.81 -0.31,1.06c-0.21,0.25 -0.53,0.38 -0.95,0.38zm2.91,-1.43c0,0.3 0.04,0.56 0.12,0.79c0.08,0.23 0.19,0.43 0.33,0.59c0.14,0.15 0.3,0.28 0.49,0.36c0.2,0.08 0.41,0.13 0.63,0.13c0.23,0 0.44,-0.05 0.62,-0.14c0.17,-0.09 0.33,-0.22 0.48,-0.38l-0.26,-0.28c-0.12,0.12 -0.24,0.22 -0.37,0.29c-0.13,0.07 -0.28,0.11 -0.46,0.11c-0.17,0 -0.32,-0.04 -0.46,-0.11c-0.14,-0.07 -0.25,-0.17 -0.35,-0.29c-0.09,-0.13 -0.17,-0.29 -0.22,-0.47c-0.05,-0.18 -0.08,-0.38 -0.08,-0.61c0,-0.22 0.03,-0.42 0.08,-0.6c0.06,-0.18 0.13,-0.33 0.23,-0.46c0.1,-0.12 0.22,-0.22 0.36,-0.29c0.14,-0.07 0.29,-0.1 0.46,-0.1c0.16,0 0.29,0.03 0.41,0.09c0.11,0.06 0.22,0.14 0.31,0.24l0.26,-0.29c-0.11,-0.11 -0.24,-0.22 -0.41,-0.31c-0.16,-0.08 -0.35,-0.13 -0.57,-0.13c-0.23,0 -0.44,0.04 -0.64,0.13c-0.19,0.09 -0.36,0.21 -0.51,0.37c-0.14,0.16 -0.25,0.36 -0.33,0.59c-0.08,0.23 -0.12,0.48 -0.12,0.77zm4.25,1.87c0.23,0 0.44,-0.05 0.63,-0.14c0.18,-0.08 0.35,-0.21 0.48,-0.37c0.14,-0.16 0.25,-0.36 0.32,-0.59c0.08,-0.23 0.11,-0.49 0.11,-0.78c0,-0.29 -0.03,-0.54 -0.11,-0.77c-0.07,-0.23 -0.18,-0.42 -0.32,-0.58c-0.13,-0.16 -0.3,-0.28 -0.48,-0.37c-0.19,-0.09 -0.4,-0.13 -0.63,-0.13c-0.22,0 -0.43,0.04 -0.62,0.13c-0.19,0.08 -0.35,0.2 -0.48,0.36c-0.14,0.16 -0.24,0.35 -0.32,0.58c-0.07,0.23 -0.11,0.49 -0.11,0.78c0,0.29 0.04,0.55 0.11,0.78c0.08,0.23 0.18,0.43 0.32,0.59c0.13,0.16 0.29,0.29 0.48,0.37c0.19,0.09 0.4,0.14 0.62,0.14zm0,-0.4c-0.16,0 -0.3,-0.04 -0.43,-0.11c-0.13,-0.07 -0.24,-0.17 -0.34,-0.3c-0.09,-0.13 -0.16,-0.28 -0.21,-0.46c-0.05,-0.18 -0.08,-0.39 -0.08,-0.61c0,-0.23 0.03,-0.43 0.08,-0.61c0.05,-0.17 0.12,-0.33 0.21,-0.45c0.1,-0.12 0.21,-0.22 0.34,-0.29c0.13,-0.07 0.27,-0.1 0.43,-0.1c0.17,0 0.31,0.03 0.44,0.1c0.13,0.07 0.24,0.17 0.33,0.29c0.1,0.12 0.17,0.28 0.22,0.45c0.05,0.18 0.08,0.38 0.08,0.61c0,0.22 -0.03,0.43 -0.08,0.61c-0.05,0.18 -0.12,0.33 -0.22,0.46c-0.09,0.13 -0.2,0.23 -0.33,0.3c-0.13,0.07 -0.27,0.11 -0.44,0.11zm2.52,-1.56l0,-1.34l0.61,0c0.28,0 0.49,0.05 0.64,0.15c0.15,0.09 0.23,0.26 0.23,0.49c0,0.24 -0.08,0.41 -0.23,0.53c-0.15,0.11 -0.36,0.17 -0.64,0.17l-0.61,0zm1.52,1.89l0.52,0l-0.91,-1.57c0.24,-0.06 0.44,-0.17 0.58,-0.34c0.15,-0.17 0.22,-0.39 0.22,-0.68c0,-0.18 -0.03,-0.34 -0.09,-0.47c-0.06,-0.12 -0.15,-0.23 -0.26,-0.31c-0.11,-0.08 -0.25,-0.14 -0.4,-0.17c-0.16,-0.04 -0.33,-0.05 -0.51,-0.05l-1.12,0l0,3.59l0.45,0l0,-1.52l0.65,0l0.87,1.52zm2.29,0.07c0.23,0 0.43,-0.05 0.62,-0.14c0.19,-0.08 0.35,-0.21 0.49,-0.37c0.14,-0.16 0.24,-0.36 0.32,-0.59c0.07,-0.23 0.11,-0.49 0.11,-0.78c0,-0.29 -0.04,-0.54 -0.11,-0.77c-0.08,-0.23 -0.18,-0.42 -0.32,-0.58c-0.14,-0.16 -0.3,-0.28 -0.49,-0.37c-0.19,-0.09 -0.39,-0.13 -0.62,-0.13c-0.23,0 -0.43,0.04 -0.62,0.13c-0.19,0.08 -0.35,0.2 -0.49,0.36c-0.13,0.16 -0.24,0.35 -0.31,0.58c-0.08,0.23 -0.11,0.49 -0.11,0.78c0,0.29 0.03,0.55 0.11,0.78c0.07,0.23 0.18,0.43 0.31,0.59c0.14,0.16 0.3,0.29 0.49,0.37c0.19,0.09 0.39,0.14 0.62,0.14zm0,-0.4c-0.16,0 -0.31,-0.04 -0.44,-0.11c-0.13,-0.07 -0.24,-0.17 -0.33,-0.3c-0.09,-0.13 -0.17,-0.28 -0.22,-0.46c-0.05,-0.18 -0.07,-0.39 -0.07,-0.61c0,-0.23 0.02,-0.43 0.07,-0.61c0.05,-0.17 0.13,-0.33 0.22,-0.45c0.09,-0.12 0.2,-0.22 0.33,-0.29c0.13,-0.07 0.28,-0.1 0.44,-0.1c0.16,0 0.3,0.03 0.43,0.1c0.13,0.07 0.25,0.17 0.34,0.29c0.09,0.12 0.16,0.28 0.21,0.45c0.06,0.18 0.08,0.38 0.08,0.61c0,0.22 -0.02,0.43 -0.08,0.61c-0.05,0.18 -0.12,0.33 -0.21,0.46c-0.09,0.13 -0.21,0.23 -0.34,0.3c-0.13,0.07 -0.27,0.11 -0.43,0.11zm2.05,-3.26l0,2.11c0,0.28 0.03,0.53 0.09,0.72c0.07,0.2 0.16,0.36 0.28,0.48c0.11,0.13 0.25,0.21 0.41,0.27c0.16,0.05 0.33,0.08 0.51,0.08c0.18,0 0.35,-0.03 0.51,-0.08c0.16,-0.06 0.29,-0.14 0.41,-0.27c0.11,-0.12 0.2,-0.28 0.27,-0.48c0.06,-0.19 0.1,-0.44 0.1,-0.72l0,-2.11l-0.44,0l0,2.12c0,0.21 -0.02,0.39 -0.07,0.54c-0.04,0.14 -0.1,0.26 -0.18,0.35c-0.07,0.09 -0.16,0.15 -0.27,0.19c-0.1,0.04 -0.21,0.06 -0.33,0.06c-0.12,0 -0.23,-0.02 -0.33,-0.06c-0.1,-0.04 -0.19,-0.1 -0.27,-0.19c-0.07,-0.09 -0.13,-0.21 -0.17,-0.35c-0.05,-0.15 -0.07,-0.33 -0.07,-0.54l0,-2.12l-0.45,0zm4.04,0.38l0,3.21l0.46,0l0,-3.21l1.09,0l0,-0.38l-2.63,0l0,0.38l1.08,0zm1.95,-0.38l0,3.59l0.45,0l0,-3.59l-0.45,0zm1.19,0l0,3.59l0.43,0l0,-1.88c0,-0.19 0,-0.38 -0.02,-0.57c-0.01,-0.18 -0.02,-0.37 -0.04,-0.55l0.02,0l0.39,0.74l1.31,2.26l0.47,0l0,-3.59l-0.44,0l0,1.85c0,0.19 0.01,0.39 0.02,0.58c0.02,0.2 0.03,0.39 0.04,0.57l-0.02,0l-0.39,-0.75l-1.3,-2.25l-0.47,0zm3.3,0l0,3.59l2.12,0l0,-0.39l-1.67,0l0,-1.3l1.36,0l0,-0.39l-1.36,0l0,-1.13l1.62,0l0,-0.38l-2.07,0zm2.65,2.81l-0.28,0.31c0.16,0.17 0.35,0.3 0.56,0.39c0.22,0.1 0.45,0.15 0.7,0.15c0.19,0 0.36,-0.03 0.51,-0.08c0.15,-0.06 0.28,-0.13 0.38,-0.22c0.11,-0.1 0.19,-0.2 0.25,-0.33c0.06,-0.12 0.08,-0.26 0.08,-0.4c0,-0.13 -0.02,-0.25 -0.05,-0.35c-0.04,-0.1 -0.09,-0.18 -0.16,-0.26c-0.07,-0.07 -0.14,-0.14 -0.24,-0.2c-0.09,-0.05 -0.18,-0.1 -0.29,-0.15l-0.51,-0.22c-0.07,-0.03 -0.14,-0.06 -0.21,-0.09c-0.07,-0.04 -0.13,-0.08 -0.19,-0.12c-0.06,-0.05 -0.11,-0.1 -0.14,-0.16c-0.04,-0.06 -0.05,-0.14 -0.05,-0.22c0,-0.17 0.06,-0.3 0.18,-0.39c0.12,-0.09 0.28,-0.14 0.49,-0.14c0.16,0 0.31,0.03 0.45,0.09c0.13,0.06 0.25,0.14 0.36,0.25l0.25,-0.3c-0.13,-0.13 -0.28,-0.23 -0.47,-0.32c-0.18,-0.08 -0.38,-0.12 -0.59,-0.12c-0.17,0 -0.32,0.02 -0.46,0.07c-0.13,0.05 -0.25,0.12 -0.35,0.2c-0.1,0.09 -0.18,0.19 -0.24,0.31c-0.05,0.11 -0.08,0.24 -0.08,0.37c0,0.14 0.02,0.25 0.06,0.35c0.05,0.1 0.1,0.19 0.17,0.26c0.07,0.07 0.15,0.14 0.24,0.19c0.09,0.05 0.17,0.09 0.26,0.13l0.51,0.22c0.08,0.04 0.16,0.08 0.24,0.12c0.07,0.04 0.13,0.08 0.19,0.12c0.05,0.05 0.09,0.1 0.12,0.17c0.03,0.06 0.05,0.14 0.05,0.23c0,0.17 -0.07,0.32 -0.2,0.42c-0.13,0.11 -0.32,0.17 -0.55,0.17c-0.19,0 -0.37,-0.05 -0.54,-0.13c-0.18,-0.08 -0.33,-0.19 -0.45,-0.32zm4.2,1.74l0,0l0.28,-0.13c-0.21,-0.35 -0.37,-0.72 -0.47,-1.12c-0.11,-0.4 -0.16,-0.81 -0.16,-1.23c0,-0.42 0.05,-0.83 0.16,-1.23c0.1,-0.4 0.26,-0.78 0.47,-1.13l-0.28,-0.13c-0.23,0.37 -0.4,0.76 -0.53,1.16c-0.13,0.4 -0.19,0.85 -0.19,1.33c0,0.48 0.06,0.92 0.19,1.33c0.13,0.4 0.3,0.79 0.53,1.15zm0.73,-4.55l0,3.59l0.46,0l0,-1.14l0.62,-0.73l1.07,1.87l0.51,0l-1.3,-2.22l1.12,-1.37l-0.51,0l-1.5,1.8l-0.01,0l0,-1.8l-0.46,0zm4.13,3.66c0.23,0 0.44,-0.05 0.62,-0.14c0.19,-0.08 0.35,-0.21 0.49,-0.37c0.14,-0.16 0.24,-0.36 0.32,-0.59c0.07,-0.23 0.11,-0.49 0.11,-0.78c0,-0.29 -0.04,-0.54 -0.11,-0.77c-0.08,-0.23 -0.18,-0.42 -0.32,-0.58c-0.14,-0.16 -0.3,-0.28 -0.49,-0.37c-0.18,-0.09 -0.39,-0.13 -0.62,-0.13c-0.22,0 -0.43,0.04 -0.62,0.13c-0.19,0.08 -0.35,0.2 -0.48,0.36c-0.14,0.16 -0.24,0.35 -0.32,0.58c-0.07,0.23 -0.11,0.49 -0.11,0.78c0,0.29 0.04,0.55 0.11,0.78c0.08,0.23 0.18,0.43 0.32,0.59c0.13,0.16 0.29,0.29 0.48,0.37c0.19,0.09 0.4,0.14 0.62,0.14zm0,-0.4c-0.16,0 -0.3,-0.04 -0.43,-0.11c-0.13,-0.07 -0.24,-0.17 -0.34,-0.3c-0.09,-0.13 -0.16,-0.28 -0.21,-0.46c-0.06,-0.18 -0.08,-0.39 -0.08,-0.61c0,-0.23 0.02,-0.43 0.08,-0.61c0.05,-0.17 0.12,-0.33 0.21,-0.45c0.1,-0.12 0.21,-0.22 0.34,-0.29c0.13,-0.07 0.27,-0.1 0.43,-0.1c0.16,0 0.31,0.03 0.44,0.1c0.13,0.07 0.24,0.17 0.33,0.29c0.09,0.12 0.17,0.28 0.22,0.45c0.05,0.18 0.07,0.38 0.07,0.61c0,0.22 -0.02,0.43 -0.07,0.61c-0.05,0.18 -0.13,0.33 -0.22,0.46c-0.09,0.13 -0.2,0.23 -0.33,0.3c-0.13,0.07 -0.28,0.11 -0.44,0.11zm2.7,-2.88l0,3.21l0.46,0l0,-3.21l1.09,0l0,-0.38l-2.63,0l0,0.38l1.08,0zm1.94,-0.38l0,3.59l2.03,0l0,-0.39l-1.57,0l0,-3.2l-0.46,0zm2.42,0l0,3.59l0.45,0l0,-3.59l-0.45,0zm1.19,0l0,3.59l0.43,0l0,-1.88c0,-0.19 0,-0.38 -0.01,-0.57c-0.02,-0.18 -0.03,-0.37 -0.05,-0.55l0.03,0l0.39,0.74l1.3,2.26l0.47,0l0,-3.59l-0.43,0l0,1.85c0,0.19 0,0.39 0.02,0.58c0.01,0.2 0.02,0.39 0.03,0.57l-0.02,0l-0.39,-0.75l-1.3,-2.25l-0.47,0zm3.93,1.73l-1.04,1.86l0.48,0l0.52,-0.97c0.04,-0.09 0.09,-0.18 0.14,-0.27c0.04,-0.09 0.09,-0.2 0.15,-0.3l0.02,0c0.06,0.1 0.11,0.21 0.16,0.3c0.05,0.09 0.1,0.18 0.14,0.27l0.53,0.97l0.5,0l-1.04,-1.84l0.98,-1.75l-0.48,0l-0.48,0.92c-0.04,0.08 -0.09,0.16 -0.12,0.24c-0.04,0.08 -0.09,0.17 -0.14,0.28l-0.02,0c-0.05,-0.11 -0.1,-0.2 -0.15,-0.28c-0.04,-0.08 -0.08,-0.16 -0.13,-0.24l-0.49,-0.92l-0.5,0l0.97,1.73zm1.79,1.59c0,0.09 0.04,0.18 0.1,0.24c0.06,0.06 0.14,0.1 0.23,0.1c0.09,0 0.17,-0.04 0.23,-0.1c0.06,-0.06 0.1,-0.15 0.1,-0.24c0,-0.11 -0.04,-0.19 -0.1,-0.26c-0.06,-0.06 -0.14,-0.09 -0.23,-0.09c-0.09,0 -0.17,0.03 -0.23,0.09c-0.06,0.07 -0.1,0.15 -0.1,0.26zm1.05,-1.53c0,0.3 0.04,0.56 0.12,0.79c0.08,0.23 0.18,0.43 0.33,0.59c0.14,0.15 0.3,0.28 0.49,0.36c0.2,0.08 0.4,0.13 0.63,0.13c0.23,0 0.44,-0.05 0.61,-0.14c0.18,-0.09 0.34,-0.22 0.49,-0.38l-0.26,-0.28c-0.12,0.12 -0.24,0.22 -0.37,0.29c-0.13,0.07 -0.28,0.11 -0.46,0.11c-0.17,0 -0.32,-0.04 -0.46,-0.11c-0.14,-0.07 -0.25,-0.17 -0.35,-0.29c-0.09,-0.13 -0.17,-0.29 -0.22,-0.47c-0.05,-0.18 -0.08,-0.38 -0.08,-0.61c0,-0.22 0.03,-0.42 0.08,-0.6c0.06,-0.18 0.13,-0.33 0.23,-0.46c0.1,-0.12 0.22,-0.22 0.36,-0.29c0.14,-0.07 0.29,-0.1 0.46,-0.1c0.16,0 0.29,0.03 0.41,0.09c0.11,0.06 0.22,0.14 0.31,0.24l0.26,-0.29c-0.11,-0.11 -0.24,-0.22 -0.41,-0.31c-0.16,-0.08 -0.35,-0.13 -0.57,-0.13c-0.23,0 -0.44,0.04 -0.64,0.13c-0.19,0.09 -0.36,0.21 -0.51,0.37c-0.14,0.16 -0.25,0.36 -0.33,0.59c-0.08,0.23 -0.12,0.48 -0.12,0.77zm4.25,1.87c0.23,0 0.44,-0.05 0.63,-0.14c0.18,-0.08 0.35,-0.21 0.48,-0.37c0.14,-0.16 0.25,-0.36 0.32,-0.59c0.08,-0.23 0.11,-0.49 0.11,-0.78c0,-0.29 -0.03,-0.54 -0.11,-0.77c-0.07,-0.23 -0.18,-0.42 -0.32,-0.58c-0.13,-0.16 -0.3,-0.28 -0.48,-0.37c-0.19,-0.09 -0.4,-0.13 -0.63,-0.13c-0.22,0 -0.43,0.04 -0.62,0.13c-0.19,0.08 -0.35,0.2 -0.48,0.36c-0.14,0.16 -0.24,0.35 -0.32,0.58c-0.07,0.23 -0.11,0.49 -0.11,0.78c0,0.29 0.04,0.55 0.11,0.78c0.08,0.23 0.18,0.43 0.32,0.59c0.13,0.16 0.29,0.29 0.48,0.37c0.19,0.09 0.4,0.14 0.62,0.14zm0,-0.4c-0.16,0 -0.3,-0.04 -0.43,-0.11c-0.13,-0.07 -0.24,-0.17 -0.34,-0.3c-0.09,-0.13 -0.16,-0.28 -0.21,-0.46c-0.05,-0.18 -0.08,-0.39 -0.08,-0.61c0,-0.23 0.03,-0.43 0.08,-0.61c0.05,-0.17 0.12,-0.33 0.21,-0.45c0.1,-0.12 0.21,-0.22 0.34,-0.29c0.13,-0.07 0.27,-0.1 0.43,-0.1c0.16,0 0.31,0.03 0.44,0.1c0.13,0.07 0.24,0.17 0.33,0.29c0.1,0.12 0.17,0.28 0.22,0.45c0.05,0.18 0.08,0.38 0.08,0.61c0,0.22 -0.03,0.43 -0.08,0.61c-0.05,0.18 -0.12,0.33 -0.22,0.46c-0.09,0.13 -0.2,0.23 -0.33,0.3c-0.13,0.07 -0.28,0.11 -0.44,0.11zm2.52,-1.56l0,-1.34l0.61,0c0.28,0 0.49,0.05 0.64,0.15c0.15,0.09 0.23,0.26 0.23,0.49c0,0.24 -0.08,0.41 -0.23,0.53c-0.15,0.11 -0.36,0.17 -0.64,0.17l-0.61,0zm1.52,1.89l0.51,0l-0.9,-1.57c0.24,-0.06 0.44,-0.17 0.58,-0.34c0.15,-0.17 0.22,-0.39 0.22,-0.68c0,-0.18 -0.03,-0.34 -0.09,-0.47c-0.06,-0.12 -0.15,-0.23 -0.26,-0.31c-0.11,-0.08 -0.25,-0.14 -0.4,-0.17c-0.16,-0.04 -0.33,-0.05 -0.51,-0.05l-1.12,0l0,3.59l0.45,0l0,-1.52l0.65,0l0.87,1.52zm2.29,0.07c0.22,0 0.43,-0.05 0.62,-0.14c0.19,-0.08 0.35,-0.21 0.49,-0.37c0.13,-0.16 0.24,-0.36 0.32,-0.59c0.07,-0.23 0.11,-0.49 0.11,-0.78c0,-0.29 -0.04,-0.54 -0.11,-0.77c-0.08,-0.23 -0.19,-0.42 -0.32,-0.58c-0.14,-0.16 -0.3,-0.28 -0.49,-0.37c-0.19,-0.09 -0.4,-0.13 -0.62,-0.13c-0.23,0 -0.44,0.04 -0.62,0.13c-0.19,0.08 -0.35,0.2 -0.49,0.36c-0.13,0.16 -0.24,0.35 -0.31,0.58c-0.08,0.23 -0.12,0.49 -0.12,0.78c0,0.29 0.04,0.55 0.12,0.78c0.07,0.23 0.18,0.43 0.31,0.59c0.14,0.16 0.3,0.29 0.49,0.37c0.18,0.09 0.39,0.14 0.62,0.14zm0,-0.4c-0.16,0 -0.31,-0.04 -0.44,-0.11c-0.13,-0.07 -0.24,-0.17 -0.33,-0.3c-0.09,-0.13 -0.17,-0.28 -0.22,-0.46c-0.05,-0.18 -0.07,-0.39 -0.07,-0.61c0,-0.23 0.02,-0.43 0.07,-0.61c0.05,-0.17 0.13,-0.33 0.22,-0.45c0.09,-0.12 0.2,-0.22 0.33,-0.29c0.13,-0.07 0.28,-0.1 0.44,-0.1c0.16,0 0.3,0.03 0.43,0.1c0.13,0.07 0.25,0.17 0.34,0.29c0.09,0.12 0.16,0.28 0.21,0.45c0.06,0.18 0.08,0.38 0.08,0.61c0,0.22 -0.02,0.43 -0.08,0.61c-0.05,0.18 -0.12,0.33 -0.21,0.46c-0.09,0.13 -0.21,0.23 -0.34,0.3c-0.13,0.07 -0.27,0.11 -0.43,0.11zm2.05,-3.26l0,2.11c0,0.28 0.03,0.53 0.09,0.72c0.07,0.2 0.16,0.36 0.28,0.48c0.11,0.13 0.25,0.21 0.41,0.27c0.16,0.05 0.33,0.08 0.51,0.08c0.18,0 0.35,-0.03 0.51,-0.08c0.16,-0.06 0.29,-0.14 0.41,-0.27c0.11,-0.12 0.2,-0.28 0.27,-0.48c0.06,-0.19 0.1,-0.44 0.1,-0.72l0,-2.11l-0.44,0l0,2.12c0,0.21 -0.02,0.39 -0.07,0.54c-0.04,0.14 -0.1,0.26 -0.18,0.35c-0.08,0.09 -0.16,0.15 -0.27,0.19c-0.1,0.04 -0.21,0.06 -0.33,0.06c-0.12,0 -0.23,-0.02 -0.33,-0.06c-0.1,-0.04 -0.19,-0.1 -0.27,-0.19c-0.07,-0.09 -0.13,-0.21 -0.17,-0.35c-0.05,-0.15 -0.07,-0.33 -0.07,-0.54l0,-2.12l-0.45,0zm4.04,0.38l0,3.21l0.46,0l0,-3.21l1.09,0l0,-0.38l-2.63,0l0,0.38l1.08,0zm1.95,-0.38l0,3.59l0.45,0l0,-3.59l-0.45,0zm1.19,0l0,3.59l0.43,0l0,-1.88c0,-0.19 0,-0.38 -0.02,-0.57c-0.01,-0.18 -0.02,-0.37 -0.04,-0.55l0.02,0l0.39,0.74l1.31,2.26l0.47,0l0,-3.59l-0.44,0l0,1.85c0,0.19 0.01,0.39 0.02,0.58c0.02,0.2 0.03,0.39 0.04,0.57l-0.02,0l-0.39,-0.75l-1.3,-2.25l-0.47,0zm3.3,0l0,3.59l2.12,0l0,-0.39l-1.67,0l0,-1.3l1.36,0l0,-0.39l-1.36,0l0,-1.13l1.62,0l0,-0.38l-2.07,0zm2.65,2.81l-0.28,0.31c0.16,0.17 0.34,0.3 0.56,0.39c0.22,0.1 0.45,0.15 0.7,0.15c0.19,0 0.36,-0.03 0.51,-0.08c0.15,-0.06 0.28,-0.13 0.38,-0.22c0.11,-0.1 0.19,-0.2 0.25,-0.33c0.05,-0.12 0.08,-0.26 0.08,-0.4c0,-0.13 -0.02,-0.25 -0.05,-0.35c-0.04,-0.1 -0.09,-0.18 -0.16,-0.26c-0.07,-0.07 -0.14,-0.14 -0.24,-0.2c-0.09,-0.05 -0.18,-0.1 -0.29,-0.15l-0.51,-0.22c-0.07,-0.03 -0.14,-0.06 -0.21,-0.09c-0.07,-0.04 -0.13,-0.08 -0.19,-0.12c-0.06,-0.05 -0.11,-0.1 -0.14,-0.16c-0.04,-0.06 -0.05,-0.14 -0.05,-0.22c0,-0.17 0.06,-0.3 0.18,-0.39c0.12,-0.09 0.28,-0.14 0.49,-0.14c0.16,0 0.31,0.03 0.45,0.09c0.13,0.06 0.25,0.14 0.36,0.25l0.25,-0.3c-0.13,-0.13 -0.28,-0.23 -0.47,-0.32c-0.18,-0.08 -0.38,-0.12 -0.59,-0.12c-0.17,0 -0.32,0.02 -0.46,0.07c-0.13,0.05 -0.25,0.12 -0.35,0.2c-0.1,0.09 -0.18,0.19 -0.24,0.31c-0.05,0.11 -0.08,0.24 -0.08,0.37c0,0.14 0.02,0.25 0.06,0.35c0.05,0.1 0.1,0.19 0.17,0.26c0.07,0.07 0.15,0.14 0.24,0.19c0.09,0.05 0.17,0.09 0.26,0.13l0.51,0.22c0.08,0.04 0.16,0.08 0.24,0.12c0.07,0.04 0.13,0.08 0.19,0.12c0.05,0.05 0.09,0.1 0.12,0.17c0.03,0.06 0.05,0.14 0.05,0.23c0,0.17 -0.07,0.32 -0.2,0.42c-0.13,0.11 -0.32,0.17 -0.55,0.17c-0.19,0 -0.37,-0.05 -0.54,-0.13c-0.18,-0.08 -0.33,-0.19 -0.45,-0.32zm2.38,1.61l0,0l0.28,0.13c0.22,-0.36 0.4,-0.75 0.53,-1.15c0.13,-0.41 0.19,-0.85 0.19,-1.33c0,-0.48 -0.06,-0.93 -0.19,-1.33c-0.13,-0.4 -0.31,-0.79 -0.53,-1.16l-0.28,0.13c0.21,0.35 0.37,0.73 0.47,1.13c0.11,0.4 0.16,0.81 0.16,1.23c0,0.42 -0.05,0.83 -0.16,1.23c-0.1,0.4 -0.26,0.77 -0.47,1.12zm1.56,-1.1c0,0.09 0.03,0.18 0.09,0.24c0.07,0.06 0.14,0.1 0.24,0.1c0.08,0 0.16,-0.04 0.22,-0.1c0.07,-0.06 0.1,-0.15 0.1,-0.24c0,-0.11 -0.03,-0.19 -0.1,-0.26c-0.06,-0.06 -0.14,-0.09 -0.22,-0.09c-0.1,0 -0.17,0.03 -0.24,0.09c-0.06,0.07 -0.09,0.15 -0.09,0.26z" id="svg_11" transform="translate(-0.49302148335159335, 4.00990806459296)"/>
     </g>
    </g>
   </g>
  </g>
 </mask>
 <g class="layer">
  <title>Layer 1</title>
  <rect class="background" fill="#ffffff" fill-opacity="0" height="250" id="svg_12" width="340" x="1.76" y="1.76"/>
  <rect class="watermarklayer" fill="url(#watermark)" height="250" id="svg_13" width="340" x="1.76" y="1.76"/>
  <g class="pmspacesvg" fill="#1582c7" id="svg_14">
   <!---->
   <g id="svg_15">
    <!---->
    <polyline data-gra="graph-name" fill-opacity="0" id="svg_16" points="11.764705896377563,73.98461556434631 1.7647058963775635,73.98461556434631 1.7647058963775635,1.7647058963775635 230.32471871376038,1.7647058963775635 230.32471871376038,11.764705896377563 " stroke="#1582c7" stroke-width="3"/>
    <!---->
    <g id="svg_17" mask="url(#7ddf512a-bac1-4531-9f05-07e566c8b7ce)" transform="translate(10 10)">
     <g id="svg_18">
      <rect class="i-icon-bg" data-gra="graph-name-bg" height="72.22" id="svg_19" stroke-width="2" width="228.56" x="1.76" y="1.76"/>
      <!---->
      <!---->
     </g>
     <g id="svg_20" transform="translate(10 10)">
      <g class="tp-name" data-gra="path-name" fill="#ffffff" id="svg_21">
       <g id="svg_22" transform="translate(50.72 83.89) scale(1 1)">
        <g id="svg_23">
         <path d="m29.15,-28.22l0,0q1.43,0 2.36,0.94q0.94,0.93 0.94,2.42l0,0l0,23.27q0,1.42 -0.94,2.39q-0.93,0.96 -2.36,0.96l0,0q-1.43,0 -2.37,-0.96q-0.93,-0.97 -0.93,-2.39l0,0l0,-2.7l1.21,0.5q0,0.71 -0.77,1.73q-0.77,1.01 -2.09,2.01q-1.32,0.99 -3.11,1.67q-1.78,0.69 -3.87,0.69l0,0q-3.8,0 -6.88,-1.95q-3.08,-1.95 -4.87,-5.39q-1.78,-3.44 -1.78,-7.9l0,0q0,-4.51 1.78,-7.94q1.79,-3.44 4.82,-5.39q3.02,-1.96 6.7,-1.96l0,0q2.37,0 4.35,0.72q1.98,0.71 3.44,1.81q1.46,1.11 2.25,2.23q0.8,1.13 0.8,1.9l0,0l-1.98,0.71l0,-4.01q0,-1.43 0.93,-2.39q0.94,-0.97 2.37,-0.97zm-11.11,24.48l0,0q2.42,0 4.24,-1.21q1.81,-1.21 2.83,-3.3q1.01,-2.09 1.01,-4.68l0,0q0,-2.63 -1.01,-4.72q-1.02,-2.09 -2.83,-3.3q-1.82,-1.22 -4.24,-1.22l0,0q-2.36,0 -4.18,1.22q-1.81,1.21 -2.83,3.3q-1.02,2.09 -1.02,4.72l0,0q0,2.59 1.02,4.68q1.02,2.09 2.83,3.3q1.82,1.21 4.18,1.21zm34.38,-24.48l0,0q3.13,0 5.47,0.66q2.34,0.66 3.63,1.85q1.29,1.18 1.29,2.83l0,0q0,1.1 -0.66,2.06q-0.66,0.97 -1.92,0.97l0,0q-0.88,0 -1.46,-0.25q-0.58,-0.25 -1.02,-0.64q-0.44,-0.38 -1.04,-0.71l0,0q-0.56,-0.33 -1.68,-0.52q-1.13,-0.2 -1.68,-0.2l0,0q-2.81,0 -4.76,1.22q-1.95,1.21 -2.99,3.27q-1.05,2.06 -1.05,4.75l0,0q0,2.65 1.07,4.71q1.08,2.06 2.97,3.27q1.9,1.21 4.37,1.21l0,0q1.38,0 2.37,-0.17q0.99,-0.16 1.65,-0.49l0,0q0.77,-0.44 1.37,-0.93q0.61,-0.5 1.82,-0.5l0,0q1.43,0 2.2,0.91q0.77,0.9 0.77,2.22l0,0q0,1.38 -1.54,2.51q-1.54,1.13 -4.04,1.81q-2.5,0.69 -5.42,0.69l0,0q-4.35,0 -7.54,-2.01q-3.18,-2 -4.92,-5.47q-1.73,-3.46 -1.73,-7.76l0,0q0,-4.51 1.84,-7.94q1.85,-3.44 5.12,-5.39q3.27,-1.96 7.51,-1.96zm15.84,1.1l0,0l13.03,0q1.32,0 2.2,0.88q0.88,0.89 0.88,2.2l0,0q0,1.27 -0.88,2.12q-0.88,0.86 -2.2,0.86l0,0l-13.03,0q-1.33,0 -2.2,-0.89q-0.88,-0.88 -0.88,-2.2l0,0q0,-1.26 0.88,-2.11q0.87,-0.86 2.2,-0.86zm5.88,-6.87l0,0q1.43,0 2.34,0.96q0.91,0.96 0.91,2.39l0,0l0,24.48q0,0.77 0.3,1.26q0.3,0.5 0.82,0.72q0.53,0.22 1.13,0.22l0,0q0.66,0 1.21,-0.25q0.55,-0.24 1.27,-0.24l0,0q0.77,0 1.4,0.71q0.63,0.71 0.63,1.98l0,0q0,1.54 -1.68,2.53q-1.68,0.99 -3.6,0.99l0,0q-1.16,0 -2.56,-0.19q-1.4,-0.2 -2.64,-0.94q-1.23,-0.74 -2.06,-2.28q-0.82,-1.54 -0.82,-4.24l0,0l0,-24.75q0,-1.43 0.96,-2.39q0.96,-0.96 2.39,-0.96zm44.28,21.06l0,0q0,4.51 -2.01,7.95q-2.01,3.44 -5.39,5.36q-3.38,1.93 -7.56,1.93l0,0q-4.18,0 -7.57,-1.93q-3.38,-1.92 -5.39,-5.36q-2.01,-3.44 -2.01,-7.95l0,0q0,-4.51 2.01,-7.94q2.01,-3.44 5.39,-5.39q3.39,-1.96 7.57,-1.96l0,0q4.18,0 7.56,1.96q3.38,1.95 5.39,5.39q2.01,3.43 2.01,7.94zm-6.6,0l0,0q0,-2.8 -1.13,-4.86q-1.13,-2.06 -3.03,-3.22q-1.9,-1.16 -4.2,-1.16l0,0q-2.31,0 -4.21,1.16q-1.9,1.16 -3.03,3.22q-1.12,2.06 -1.12,4.86l0,0q0,2.75 1.12,4.82q1.13,2.06 3.03,3.21q1.9,1.16 4.21,1.16l0,0q2.3,0 4.2,-1.16q1.9,-1.15 3.03,-3.21q1.13,-2.07 1.13,-4.82zm15.4,14.69l0,0q-1.43,0 -2.37,-0.96q-0.93,-0.97 -0.93,-2.39l0,0l0,-22.72q0,-1.43 0.93,-2.39q0.94,-0.97 2.37,-0.97l0,0q1.43,0 2.36,0.97q0.94,0.96 0.94,2.39l0,0l0,5.17l-0.39,-3.69q0.61,-1.32 1.57,-2.33q0.96,-1.02 2.17,-1.71q1.21,-0.69 2.59,-1.01q1.37,-0.34 2.75,-0.34l0,0q1.65,0 2.77,0.94q1.13,0.93 1.13,2.2l0,0q0,1.82 -0.93,2.61q-0.94,0.8 -2.04,0.8l0,0q-1.04,0 -1.9,-0.39q-0.85,-0.38 -1.95,-0.38l0,0q-0.99,0 -2.01,0.47q-1.01,0.46 -1.87,1.46q-0.85,0.98 -1.37,2.44q-0.52,1.46 -0.52,3.44l0,0l0,13.04q0,1.42 -0.94,2.39q-0.93,0.96 -2.36,0.96zm42.79,0l0,0q-1.38,0 -2.31,-0.96q-0.94,-0.97 -0.94,-2.39l0,0l0,-25.86l1.16,0.28l-10.62,13.14l-0.27,-0.71l18.64,0q1.32,0 2.2,0.88q0.88,0.88 0.88,2.2l0,0q0,1.27 -0.88,2.12q-0.88,0.85 -2.2,0.85l0,0l-23.21,0q-1.15,0 -2.23,-0.93q-1.07,-0.94 -1.07,-2.32l0,0q0,-1.2 0.83,-2.19l0,0l17.38,-21.29q0.44,-0.61 1.15,-0.96q0.72,-0.36 1.6,-0.36l0,0q1.43,0 2.33,0.96q0.91,0.96 0.91,2.39l0,0l0,31.8q0,1.42 -0.96,2.39q-0.96,0.96 -2.39,0.96zm20.57,0l0,0q-1.43,0 -2.37,-0.96q-0.93,-0.97 -0.93,-2.39l0,0l0,-33.99q0,-1.43 0.93,-2.4q0.94,-0.96 2.37,-0.96l0,0q1.43,0 2.36,0.96q0.94,0.97 0.94,2.4l0,0l0,33.99q0,1.42 -0.94,2.39q-0.93,0.96 -2.36,0.96zm17.49,-29.43l0,0q1.26,0 2.2,1.05q0.93,1.04 0.93,2.04l0,0q0,1.32 -1.32,2.47l0,0l-16.55,15.24l-0.28,-7.6l12.6,-12.15q1.04,-1.05 2.42,-1.05zm0.82,29.37l0,0q-1.43,0 -2.42,-1.1l0,0l-10.17,-10.78l5,-4.61l9.9,10.77q1.05,1.11 1.05,2.48l0,0q0,1.43 -1.13,2.34q-1.13,0.9 -2.23,0.9z" id="svg_24" transform="translate(-1.93 40.7)"/>
        </g>
        <!---->
        <!---->
        <!---->
        <!---->
        <!---->
        <!---->
        <!---->
       </g>
      </g>
      <g class="tp-slogan" data-gra="path-slogan" fill="#ffffff" id="svg_25" transform="matrix(1 0 0 1 0.360008 47.25)">
       <!---->
       <!---->
       <g id="svg_26" transform="translate(50.72 83.89) scale(1 1)">
        <g id="svg_27" transform="translate(-11 -28) scale(1 1)">
         <path d="m2.25,-1.83l0,3.59l0.46,0l0,-3.59l-0.46,0zm1.94,0.38l0,3.21l0.46,0l0,-3.21l1.09,0l0,-0.38l-2.63,0l0,0.38l1.08,0zm2.8,-0.38l0,3.59l0.46,0l0,-3.59l-0.46,0zm1.21,2.81l-0.28,0.31c0.16,0.17 0.35,0.3 0.56,0.39c0.22,0.1 0.45,0.15 0.7,0.15c0.19,0 0.36,-0.03 0.51,-0.08c0.15,-0.06 0.28,-0.13 0.39,-0.22c0.1,-0.1 0.18,-0.2 0.24,-0.33c0.06,-0.12 0.08,-0.26 0.08,-0.4c0,-0.13 -0.01,-0.25 -0.05,-0.35c-0.04,-0.1 -0.09,-0.18 -0.16,-0.26c-0.06,-0.07 -0.14,-0.14 -0.23,-0.2c-0.1,-0.05 -0.19,-0.1 -0.3,-0.15l-0.5,-0.22c-0.08,-0.03 -0.15,-0.06 -0.22,-0.09c-0.07,-0.04 -0.13,-0.08 -0.19,-0.12c-0.06,-0.05 -0.1,-0.1 -0.14,-0.16c-0.03,-0.06 -0.05,-0.14 -0.05,-0.22c0,-0.17 0.06,-0.3 0.18,-0.39c0.12,-0.09 0.29,-0.14 0.49,-0.14c0.16,0 0.32,0.03 0.45,0.09c0.13,0.06 0.25,0.14 0.36,0.25l0.25,-0.3c-0.13,-0.13 -0.28,-0.23 -0.47,-0.32c-0.18,-0.08 -0.38,-0.12 -0.59,-0.12c-0.17,0 -0.32,0.02 -0.46,0.07c-0.13,0.05 -0.25,0.12 -0.35,0.2c-0.1,0.09 -0.18,0.19 -0.24,0.31c-0.05,0.11 -0.08,0.24 -0.08,0.37c0,0.14 0.02,0.25 0.06,0.35c0.05,0.1 0.1,0.19 0.17,0.26c0.07,0.07 0.15,0.14 0.24,0.19c0.09,0.05 0.17,0.09 0.26,0.13l0.51,0.22c0.09,0.04 0.16,0.08 0.24,0.12c0.07,0.04 0.13,0.08 0.19,0.12c0.05,0.05 0.09,0.1 0.12,0.17c0.03,0.06 0.05,0.14 0.05,0.23c0,0.17 -0.07,0.32 -0.2,0.42c-0.13,0.11 -0.31,0.17 -0.55,0.17c-0.19,0 -0.37,-0.05 -0.54,-0.13c-0.17,-0.08 -0.33,-0.19 -0.45,-0.32zm5.05,-0.68l-1.08,0l0.17,-0.55c0.07,-0.2 0.13,-0.4 0.19,-0.6c0.06,-0.2 0.11,-0.4 0.17,-0.61l0.02,0c0.06,0.21 0.12,0.41 0.17,0.61c0.06,0.2 0.12,0.4 0.19,0.6l0.17,0.55zm0.12,0.36l0.34,1.1l0.48,0l-1.21,-3.59l-0.52,0l-1.21,3.59l0.46,0l0.35,-1.1l1.31,0zm1.95,0.32l-0.27,0.31c0.16,0.17 0.34,0.3 0.56,0.39c0.21,0.1 0.45,0.15 0.7,0.15c0.19,0 0.36,-0.03 0.51,-0.08c0.15,-0.06 0.28,-0.13 0.38,-0.22c0.11,-0.1 0.19,-0.2 0.25,-0.33c0.05,-0.12 0.08,-0.26 0.08,-0.4c0,-0.13 -0.02,-0.25 -0.06,-0.35c-0.03,-0.1 -0.09,-0.18 -0.15,-0.26c-0.07,-0.07 -0.15,-0.14 -0.24,-0.2c-0.09,-0.05 -0.19,-0.1 -0.29,-0.15l-0.51,-0.22c-0.07,-0.03 -0.14,-0.06 -0.21,-0.09c-0.07,-0.04 -0.13,-0.08 -0.19,-0.12c-0.06,-0.05 -0.11,-0.1 -0.14,-0.16c-0.04,-0.06 -0.05,-0.14 -0.05,-0.22c0,-0.17 0.06,-0.3 0.18,-0.39c0.12,-0.09 0.28,-0.14 0.48,-0.14c0.17,0 0.32,0.03 0.46,0.09c0.13,0.06 0.25,0.14 0.36,0.25l0.25,-0.3c-0.13,-0.13 -0.29,-0.23 -0.47,-0.32c-0.18,-0.08 -0.38,-0.12 -0.6,-0.12c-0.16,0 -0.31,0.02 -0.45,0.07c-0.14,0.05 -0.25,0.12 -0.35,0.2c-0.1,0.09 -0.18,0.19 -0.24,0.31c-0.06,0.11 -0.08,0.24 -0.08,0.37c0,0.14 0.02,0.25 0.06,0.35c0.04,0.1 0.1,0.19 0.17,0.26c0.07,0.07 0.15,0.14 0.24,0.19c0.08,0.05 0.17,0.09 0.25,0.13l0.52,0.22c0.08,0.04 0.16,0.08 0.23,0.12c0.08,0.04 0.14,0.08 0.19,0.12c0.06,0.05 0.1,0.1 0.13,0.17c0.03,0.06 0.05,0.14 0.05,0.23c0,0.17 -0.07,0.32 -0.2,0.42c-0.13,0.11 -0.32,0.17 -0.55,0.17c-0.19,0 -0.37,-0.05 -0.54,-0.13c-0.18,-0.08 -0.33,-0.19 -0.46,-0.32zm2.67,-2.81l0,3.59l0.42,0l0,-1.98c0,-0.16 -0.01,-0.34 -0.02,-0.53c-0.01,-0.19 -0.03,-0.37 -0.04,-0.53l0.02,0l0.29,0.8l0.69,1.88l0.26,0l0.69,-1.88l0.29,-0.8l0.02,0c-0.01,0.16 -0.02,0.34 -0.04,0.53c-0.01,0.19 -0.02,0.37 -0.02,0.53l0,1.98l0.44,0l0,-3.59l-0.54,0l-0.69,1.92l-0.25,0.74l-0.02,0l-0.27,-0.74l-0.69,-1.92l-0.54,0zm5.26,2.13l-1.08,0l0.17,-0.55c0.07,-0.2 0.13,-0.4 0.19,-0.6c0.06,-0.2 0.12,-0.4 0.17,-0.61l0.02,0c0.06,0.21 0.12,0.41 0.18,0.61c0.06,0.2 0.12,0.4 0.18,0.6l0.17,0.55zm0.12,0.36l0.34,1.1l0.49,0l-1.22,-3.59l-0.52,0l-1.21,3.59l0.46,0l0.35,-1.1l1.31,0zm1.09,-2.49l0,3.59l2.02,0l0,-0.39l-1.57,0l0,-3.2l-0.45,0zm2.41,0l0,3.59l2.03,0l0,-0.39l-1.57,0l0,-3.2l-0.46,0zm4.8,2.13l-1.08,0l0.17,-0.55c0.07,-0.2 0.13,-0.4 0.19,-0.6c0.06,-0.2 0.12,-0.4 0.17,-0.61l0.02,0c0.06,0.21 0.12,0.41 0.18,0.61c0.06,0.2 0.12,0.4 0.18,0.6l0.17,0.55zm0.12,0.36l0.34,1.1l0.49,0l-1.22,-3.59l-0.52,0l-1.21,3.59l0.46,0l0.35,-1.1l1.31,0zm1.09,-2.49l0,3.59l0.43,0l0,-1.88c0,-0.19 -0.01,-0.38 -0.02,-0.57c-0.01,-0.18 -0.03,-0.37 -0.04,-0.55l0.02,0l0.39,0.74l1.3,2.26l0.48,0l0,-3.59l-0.44,0l0,1.85c0,0.19 0.01,0.39 0.02,0.58c0.01,0.2 0.03,0.39 0.04,0.57l-0.02,0l-0.39,-0.75l-1.3,-2.25l-0.47,0zm3.29,0l0,3.59l0.92,0c0.27,0 0.51,-0.04 0.72,-0.12c0.21,-0.09 0.38,-0.2 0.53,-0.36c0.14,-0.15 0.25,-0.34 0.32,-0.57c0.07,-0.22 0.11,-0.48 0.11,-0.76c0,-0.58 -0.14,-1.02 -0.43,-1.32c-0.29,-0.31 -0.71,-0.46 -1.27,-0.46l-0.9,0zm0.87,3.22l-0.41,0l0,-2.85l0.41,0c0.42,0 0.73,0.12 0.94,0.36c0.21,0.24 0.32,0.59 0.32,1.05c0,0.45 -0.11,0.81 -0.32,1.06c-0.21,0.25 -0.52,0.38 -0.94,0.38zm3.12,-0.41l-0.27,0.31c0.16,0.17 0.34,0.3 0.56,0.39c0.21,0.1 0.45,0.15 0.7,0.15c0.19,0 0.36,-0.03 0.51,-0.08c0.15,-0.06 0.28,-0.13 0.38,-0.22c0.11,-0.1 0.19,-0.2 0.25,-0.33c0.05,-0.12 0.08,-0.26 0.08,-0.4c0,-0.13 -0.02,-0.25 -0.06,-0.35c-0.03,-0.1 -0.09,-0.18 -0.15,-0.26c-0.07,-0.07 -0.15,-0.14 -0.24,-0.2c-0.09,-0.05 -0.19,-0.1 -0.29,-0.15l-0.51,-0.22c-0.07,-0.03 -0.14,-0.06 -0.21,-0.09c-0.07,-0.04 -0.13,-0.08 -0.19,-0.12c-0.06,-0.05 -0.11,-0.1 -0.14,-0.16c-0.04,-0.06 -0.05,-0.14 -0.05,-0.22c0,-0.17 0.06,-0.3 0.18,-0.39c0.12,-0.09 0.28,-0.14 0.48,-0.14c0.17,0 0.32,0.03 0.46,0.09c0.13,0.06 0.25,0.14 0.36,0.25l0.25,-0.3c-0.13,-0.13 -0.29,-0.23 -0.47,-0.32c-0.18,-0.08 -0.38,-0.12 -0.6,-0.12c-0.16,0 -0.31,0.02 -0.45,0.07c-0.13,0.05 -0.25,0.12 -0.35,0.2c-0.1,0.09 -0.18,0.19 -0.24,0.31c-0.06,0.11 -0.08,0.24 -0.08,0.37c0,0.14 0.02,0.25 0.06,0.35c0.05,0.1 0.1,0.19 0.17,0.26c0.07,0.07 0.15,0.14 0.24,0.19c0.08,0.05 0.17,0.09 0.25,0.13l0.52,0.22c0.08,0.04 0.16,0.08 0.23,0.12c0.08,0.04 0.14,0.08 0.19,0.12c0.06,0.05 0.1,0.1 0.13,0.17c0.03,0.06 0.05,0.14 0.05,0.23c0,0.17 -0.07,0.32 -0.2,0.42c-0.13,0.11 -0.32,0.17 -0.55,0.17c-0.19,0 -0.37,-0.05 -0.54,-0.13c-0.18,-0.08 -0.33,-0.19 -0.46,-0.32zm2.67,-2.81l0,3.59l0.46,0l0,-3.59l-0.46,0zm1.19,0l0,3.59l0.43,0l0,-1.98c0,-0.16 -0.01,-0.34 -0.03,-0.53c-0.01,-0.19 -0.02,-0.37 -0.03,-0.53l0.02,0l0.28,0.8l0.7,1.88l0.26,0l0.69,-1.88l0.29,-0.8l0.02,0c-0.02,0.16 -0.03,0.34 -0.04,0.53c-0.02,0.19 -0.02,0.37 -0.02,0.53l0,1.98l0.43,0l0,-3.59l-0.54,0l-0.69,1.92l-0.25,0.74l-0.02,0l-0.26,-0.74l-0.7,-1.92l-0.54,0zm3.74,0l0,3.59l0.45,0l0,-1.42l0.65,0c0.2,0 0.38,-0.03 0.54,-0.07c0.16,-0.05 0.3,-0.12 0.42,-0.21c0.11,-0.09 0.21,-0.2 0.27,-0.34c0.06,-0.14 0.09,-0.31 0.09,-0.5c0,-0.19 -0.03,-0.36 -0.09,-0.49c-0.06,-0.14 -0.15,-0.25 -0.27,-0.33c-0.11,-0.08 -0.25,-0.14 -0.42,-0.18c-0.16,-0.04 -0.34,-0.05 -0.54,-0.05l-1.1,0zm1.04,1.79l-0.59,0l0,-1.43l0.59,0c0.31,0 0.55,0.05 0.7,0.15c0.15,0.1 0.23,0.28 0.23,0.54c0,0.26 -0.08,0.45 -0.23,0.57c-0.15,0.11 -0.38,0.17 -0.7,0.17zm1.87,-1.79l0,3.59l2.02,0l0,-0.39l-1.57,0l0,-3.2l-0.45,0zm2.41,0l0,3.59l2.13,0l0,-0.39l-1.68,0l0,-1.3l1.37,0l0,-0.39l-1.37,0l0,-1.13l1.62,0l0,-0.38l-2.07,0zm5.03,2.13l-1.08,0l0.17,-0.55c0.06,-0.2 0.12,-0.4 0.18,-0.6c0.06,-0.2 0.12,-0.4 0.17,-0.61l0.02,0c0.06,0.21 0.12,0.41 0.18,0.61c0.06,0.2 0.12,0.4 0.19,0.6l0.17,0.55zm0.11,0.36l0.34,1.1l0.49,0l-1.22,-3.59l-0.51,0l-1.22,3.59l0.47,0l0.34,-1.1l1.31,0zm0.83,-0.7c0,0.3 0.04,0.56 0.11,0.79c0.08,0.23 0.19,0.43 0.33,0.59c0.14,0.15 0.31,0.28 0.5,0.36c0.19,0.08 0.4,0.13 0.63,0.13c0.23,0 0.43,-0.05 0.61,-0.14c0.18,-0.09 0.34,-0.22 0.48,-0.38l-0.25,-0.28c-0.12,0.12 -0.24,0.22 -0.37,0.29c-0.13,0.07 -0.28,0.11 -0.46,0.11c-0.17,0 -0.33,-0.04 -0.46,-0.11c-0.14,-0.07 -0.26,-0.17 -0.35,-0.29c-0.1,-0.13 -0.17,-0.29 -0.22,-0.47c-0.06,-0.18 -0.08,-0.38 -0.08,-0.61c0,-0.22 0.03,-0.42 0.08,-0.6c0.06,-0.18 0.13,-0.33 0.23,-0.46c0.1,-0.12 0.22,-0.22 0.36,-0.29c0.14,-0.07 0.29,-0.1 0.46,-0.1c0.16,0 0.29,0.03 0.4,0.09c0.12,0.06 0.22,0.14 0.32,0.24l0.26,-0.29c-0.11,-0.11 -0.24,-0.22 -0.41,-0.31c-0.16,-0.08 -0.35,-0.13 -0.57,-0.13c-0.23,0 -0.45,0.04 -0.64,0.13c-0.2,0.09 -0.37,0.21 -0.51,0.37c-0.14,0.16 -0.25,0.36 -0.33,0.59c-0.08,0.23 -0.12,0.48 -0.12,0.77zm3.73,-1.41l0,3.21l0.46,0l0,-3.21l1.09,0l0,-0.38l-2.63,0l0,0.38l1.08,0zm3.14,3.28c0.23,0 0.43,-0.05 0.62,-0.14c0.19,-0.08 0.35,-0.21 0.49,-0.37c0.14,-0.16 0.24,-0.36 0.32,-0.59c0.07,-0.23 0.11,-0.49 0.11,-0.78c0,-0.29 -0.04,-0.54 -0.11,-0.77c-0.08,-0.23 -0.18,-0.42 -0.32,-0.58c-0.14,-0.16 -0.3,-0.28 -0.49,-0.37c-0.19,-0.09 -0.39,-0.13 -0.62,-0.13c-0.23,0 -0.43,0.04 -0.62,0.13c-0.19,0.08 -0.35,0.2 -0.49,0.36c-0.13,0.16 -0.24,0.35 -0.31,0.58c-0.08,0.23 -0.11,0.49 -0.11,0.78c0,0.29 0.03,0.55 0.11,0.78c0.07,0.23 0.18,0.43 0.31,0.59c0.14,0.16 0.3,0.29 0.49,0.37c0.19,0.09 0.39,0.14 0.62,0.14zm0,-0.4c-0.16,0 -0.31,-0.04 -0.44,-0.11c-0.13,-0.07 -0.24,-0.17 -0.33,-0.3c-0.09,-0.13 -0.17,-0.28 -0.22,-0.46c-0.05,-0.18 -0.07,-0.39 -0.07,-0.61c0,-0.23 0.02,-0.43 0.07,-0.61c0.05,-0.17 0.13,-0.33 0.22,-0.45c0.09,-0.12 0.2,-0.22 0.33,-0.29c0.13,-0.07 0.28,-0.1 0.44,-0.1c0.16,0 0.31,0.03 0.43,0.1c0.13,0.07 0.25,0.17 0.34,0.29c0.09,0.12 0.16,0.28 0.22,0.45c0.05,0.18 0.07,0.38 0.07,0.61c0,0.22 -0.02,0.43 -0.07,0.61c-0.06,0.18 -0.13,0.33 -0.22,0.46c-0.09,0.13 -0.21,0.23 -0.34,0.3c-0.12,0.07 -0.27,0.11 -0.43,0.11zm2.52,-1.56l0,-1.34l0.6,0c0.28,0 0.5,0.05 0.65,0.15c0.15,0.09 0.22,0.26 0.22,0.49c0,0.24 -0.07,0.41 -0.22,0.53c-0.15,0.11 -0.37,0.17 -0.65,0.17l-0.6,0zm1.52,1.89l0.51,0l-0.91,-1.57c0.25,-0.06 0.44,-0.17 0.59,-0.34c0.14,-0.17 0.22,-0.39 0.22,-0.68c0,-0.18 -0.03,-0.34 -0.1,-0.47c-0.06,-0.12 -0.15,-0.23 -0.26,-0.31c-0.11,-0.08 -0.24,-0.14 -0.4,-0.17c-0.15,-0.04 -0.32,-0.05 -0.5,-0.05l-1.13,0l0,3.59l0.46,0l0,-1.52l0.65,0l0.87,1.52zm1.83,-0.78l-0.28,0.31c0.16,0.17 0.35,0.3 0.56,0.39c0.22,0.1 0.45,0.15 0.7,0.15c0.19,0 0.36,-0.03 0.51,-0.08c0.15,-0.06 0.28,-0.13 0.39,-0.22c0.1,-0.1 0.18,-0.2 0.24,-0.33c0.06,-0.12 0.09,-0.26 0.09,-0.4c0,-0.13 -0.02,-0.25 -0.06,-0.35c-0.04,-0.1 -0.09,-0.18 -0.16,-0.26c-0.06,-0.07 -0.14,-0.14 -0.23,-0.2c-0.1,-0.05 -0.19,-0.1 -0.29,-0.15l-0.51,-0.22c-0.08,-0.03 -0.15,-0.06 -0.22,-0.09c-0.07,-0.04 -0.13,-0.08 -0.19,-0.12c-0.06,-0.05 -0.1,-0.1 -0.14,-0.16c-0.03,-0.06 -0.05,-0.14 -0.05,-0.22c0,-0.17 0.06,-0.3 0.18,-0.39c0.13,-0.09 0.29,-0.14 0.49,-0.14c0.17,0 0.32,0.03 0.45,0.09c0.13,0.06 0.25,0.14 0.36,0.25l0.25,-0.3c-0.13,-0.13 -0.28,-0.23 -0.47,-0.32c-0.18,-0.08 -0.38,-0.12 -0.59,-0.12c-0.17,0 -0.32,0.02 -0.45,0.07c-0.14,0.05 -0.26,0.12 -0.36,0.2c-0.1,0.09 -0.18,0.19 -0.24,0.31c-0.05,0.11 -0.08,0.24 -0.08,0.37c0,0.14 0.02,0.25 0.06,0.35c0.05,0.1 0.11,0.19 0.17,0.26c0.07,0.07 0.15,0.14 0.24,0.19c0.09,0.05 0.17,0.09 0.26,0.13l0.51,0.22c0.09,0.04 0.17,0.08 0.24,0.12c0.07,0.04 0.13,0.08 0.19,0.12c0.05,0.05 0.09,0.1 0.12,0.17c0.03,0.06 0.05,0.14 0.05,0.23c0,0.17 -0.07,0.32 -0.2,0.42c-0.13,0.11 -0.31,0.17 -0.55,0.17c-0.19,0 -0.37,-0.05 -0.54,-0.13c-0.17,-0.08 -0.32,-0.19 -0.45,-0.32zm3.21,-0.61l0,1.39l0.46,0l0,-1.39l1.08,-2.2l-0.48,0l-0.46,1.01c-0.06,0.13 -0.11,0.26 -0.18,0.39c-0.06,0.13 -0.12,0.26 -0.18,0.39l-0.02,0c-0.07,-0.13 -0.12,-0.26 -0.18,-0.39c-0.05,-0.13 -0.11,-0.26 -0.17,-0.39l-0.47,-1.01l-0.48,0l1.08,2.2zm1.7,0.61l-0.27,0.31c0.15,0.17 0.34,0.3 0.55,0.39c0.22,0.1 0.45,0.15 0.7,0.15c0.19,0 0.36,-0.03 0.51,-0.08c0.15,-0.06 0.28,-0.13 0.39,-0.22c0.1,-0.1 0.19,-0.2 0.24,-0.33c0.06,-0.12 0.09,-0.26 0.09,-0.4c0,-0.13 -0.02,-0.25 -0.06,-0.35c-0.04,-0.1 -0.09,-0.18 -0.16,-0.26c-0.06,-0.07 -0.14,-0.14 -0.23,-0.2c-0.09,-0.05 -0.19,-0.1 -0.29,-0.15l-0.51,-0.22c-0.08,-0.03 -0.15,-0.06 -0.22,-0.09c-0.07,-0.04 -0.13,-0.08 -0.19,-0.12c-0.06,-0.05 -0.1,-0.1 -0.14,-0.16c-0.03,-0.06 -0.05,-0.14 -0.05,-0.22c0,-0.17 0.06,-0.3 0.18,-0.39c0.13,-0.09 0.29,-0.14 0.49,-0.14c0.17,0 0.32,0.03 0.45,0.09c0.13,0.06 0.26,0.14 0.37,0.25l0.24,-0.3c-0.13,-0.13 -0.28,-0.23 -0.46,-0.32c-0.19,-0.08 -0.39,-0.12 -0.6,-0.12c-0.17,0 -0.32,0.02 -0.45,0.07c-0.14,0.05 -0.26,0.12 -0.36,0.2c-0.1,0.09 -0.18,0.19 -0.23,0.31c-0.06,0.11 -0.09,0.24 -0.09,0.37c0,0.14 0.02,0.25 0.07,0.35c0.04,0.1 0.1,0.19 0.17,0.26c0.07,0.07 0.14,0.14 0.23,0.19c0.09,0.05 0.17,0.09 0.26,0.13l0.51,0.22c0.09,0.04 0.17,0.08 0.24,0.12c0.07,0.04 0.14,0.08 0.19,0.12c0.05,0.05 0.09,0.1 0.12,0.17c0.04,0.06 0.05,0.14 0.05,0.23c0,0.17 -0.06,0.32 -0.2,0.42c-0.13,0.11 -0.31,0.17 -0.55,0.17c-0.19,0 -0.37,-0.05 -0.54,-0.13c-0.17,-0.08 -0.32,-0.19 -0.45,-0.32zm3.3,-2.43l0,3.21l0.46,0l0,-3.21l1.09,0l0,-0.38l-2.63,0l0,0.38l1.08,0zm1.94,-0.38l0,3.59l2.13,0l0,-0.39l-1.67,0l0,-1.3l1.36,0l0,-0.39l-1.36,0l0,-1.13l1.61,0l0,-0.38l-2.07,0zm2.64,0l0,3.59l0.43,0l0,-1.98c0,-0.16 -0.01,-0.34 -0.03,-0.53c-0.01,-0.19 -0.02,-0.37 -0.04,-0.53l0.03,0l0.28,0.8l0.7,1.88l0.25,0l0.69,-1.88l0.3,-0.8l0.02,0c-0.02,0.16 -0.03,0.34 -0.04,0.53c-0.02,0.19 -0.02,0.37 -0.02,0.53l0,1.98l0.43,0l0,-3.59l-0.54,0l-0.69,1.92l-0.25,0.74l-0.02,0l-0.26,-0.74l-0.7,-1.92l-0.54,0zm4.58,0l0,2.11c0,0.28 0.03,0.53 0.1,0.72c0.06,0.2 0.15,0.36 0.27,0.48c0.12,0.13 0.25,0.21 0.41,0.27c0.16,0.05 0.33,0.08 0.51,0.08c0.19,0 0.36,-0.03 0.51,-0.08c0.16,-0.06 0.3,-0.14 0.41,-0.27c0.12,-0.12 0.21,-0.28 0.27,-0.48c0.07,-0.19 0.1,-0.44 0.1,-0.72l0,-2.11l-0.44,0l0,2.12c0,0.21 -0.02,0.39 -0.06,0.54c-0.05,0.14 -0.11,0.26 -0.18,0.35c-0.08,0.09 -0.17,0.15 -0.27,0.19c-0.11,0.04 -0.22,0.06 -0.34,0.06c-0.11,0 -0.22,-0.02 -0.33,-0.06c-0.1,-0.04 -0.19,-0.1 -0.26,-0.19c-0.08,-0.09 -0.14,-0.21 -0.18,-0.35c-0.04,-0.15 -0.07,-0.33 -0.07,-0.54l0,-2.12l-0.45,0zm3.26,2.81l-0.28,0.31c0.16,0.17 0.35,0.3 0.56,0.39c0.22,0.1 0.45,0.15 0.7,0.15c0.19,0 0.36,-0.03 0.51,-0.08c0.15,-0.06 0.28,-0.13 0.39,-0.22c0.1,-0.1 0.18,-0.2 0.24,-0.33c0.06,-0.12 0.09,-0.26 0.09,-0.4c0,-0.13 -0.02,-0.25 -0.06,-0.35c-0.04,-0.1 -0.09,-0.18 -0.16,-0.26c-0.06,-0.07 -0.14,-0.14 -0.23,-0.2c-0.09,-0.05 -0.19,-0.1 -0.29,-0.15l-0.51,-0.22c-0.08,-0.03 -0.15,-0.06 -0.22,-0.09c-0.07,-0.04 -0.13,-0.08 -0.19,-0.12c-0.06,-0.05 -0.1,-0.1 -0.14,-0.16c-0.03,-0.06 -0.05,-0.14 -0.05,-0.22c0,-0.17 0.06,-0.3 0.18,-0.39c0.13,-0.09 0.29,-0.14 0.49,-0.14c0.17,0 0.32,0.03 0.45,0.09c0.13,0.06 0.25,0.14 0.36,0.25l0.25,-0.3c-0.13,-0.13 -0.28,-0.23 -0.46,-0.32c-0.19,-0.08 -0.39,-0.12 -0.6,-0.12c-0.17,0 -0.32,0.02 -0.45,0.07c-0.14,0.05 -0.26,0.12 -0.36,0.2c-0.1,0.09 -0.18,0.19 -0.24,0.31c-0.05,0.11 -0.08,0.24 -0.08,0.37c0,0.14 0.02,0.25 0.07,0.35c0.04,0.1 0.1,0.19 0.17,0.26c0.06,0.07 0.14,0.14 0.23,0.19c0.09,0.05 0.17,0.09 0.26,0.13l0.51,0.22c0.09,0.04 0.17,0.08 0.24,0.12c0.07,0.04 0.13,0.08 0.19,0.12c0.05,0.05 0.09,0.1 0.12,0.17c0.03,0.06 0.05,0.14 0.05,0.23c0,0.17 -0.07,0.32 -0.2,0.42c-0.13,0.11 -0.31,0.17 -0.55,0.17c-0.19,0 -0.37,-0.05 -0.54,-0.13c-0.17,-0.08 -0.32,-0.19 -0.45,-0.32zm2.66,-2.81l0,3.59l0.46,0l0,-3.59l-0.46,0zm1.2,0l0,3.59l0.43,0l0,-1.88c0,-0.19 -0.01,-0.38 -0.02,-0.57c-0.01,-0.18 -0.03,-0.37 -0.04,-0.55l0.02,0l0.39,0.74l1.3,2.26l0.48,0l0,-3.59l-0.44,0l0,1.85c0,0.19 0.01,0.39 0.02,0.58c0.02,0.2 0.03,0.39 0.04,0.57l-0.02,0l-0.39,-0.75l-1.3,-2.25l-0.47,0zm3.09,1.79c0,0.3 0.04,0.56 0.12,0.79c0.08,0.23 0.19,0.43 0.33,0.59c0.14,0.15 0.31,0.28 0.51,0.36c0.2,0.08 0.41,0.13 0.65,0.13c0.24,0 0.46,-0.04 0.65,-0.12c0.19,-0.08 0.35,-0.18 0.46,-0.3l0,-1.51l-1.17,0l0,0.38l0.76,0l0,0.93c-0.08,0.07 -0.17,0.12 -0.28,0.16c-0.12,0.04 -0.24,0.06 -0.37,0.06c-0.19,0 -0.36,-0.04 -0.51,-0.11c-0.15,-0.07 -0.27,-0.17 -0.37,-0.29c-0.1,-0.13 -0.18,-0.29 -0.23,-0.47c-0.06,-0.18 -0.08,-0.38 -0.08,-0.61c0,-0.22 0.03,-0.42 0.08,-0.6c0.06,-0.18 0.14,-0.33 0.24,-0.46c0.1,-0.12 0.23,-0.22 0.37,-0.29c0.15,-0.07 0.31,-0.1 0.5,-0.1c0.18,0 0.33,0.03 0.45,0.1c0.12,0.06 0.22,0.14 0.31,0.23l0.26,-0.29c-0.11,-0.11 -0.24,-0.21 -0.41,-0.3c-0.16,-0.09 -0.37,-0.14 -0.62,-0.14c-0.24,0 -0.46,0.04 -0.66,0.13c-0.2,0.09 -0.38,0.21 -0.53,0.37c-0.14,0.16 -0.26,0.36 -0.34,0.59c-0.08,0.23 -0.12,0.48 -0.12,0.77zm4.19,-1.79l0,3.59l0.46,0l0,-1.14l0.62,-0.73l1.07,1.87l0.51,0l-1.3,-2.22l1.13,-1.37l-0.52,0l-1.49,1.8l-0.02,0l0,-1.8l-0.46,0zm4.13,3.66c0.23,0 0.44,-0.05 0.63,-0.14c0.18,-0.08 0.35,-0.21 0.48,-0.37c0.14,-0.16 0.25,-0.36 0.32,-0.59c0.08,-0.23 0.11,-0.49 0.11,-0.78c0,-0.29 -0.03,-0.54 -0.11,-0.77c-0.07,-0.23 -0.18,-0.42 -0.32,-0.58c-0.13,-0.16 -0.3,-0.28 -0.48,-0.37c-0.19,-0.09 -0.4,-0.13 -0.63,-0.13c-0.22,0 -0.43,0.04 -0.62,0.13c-0.19,0.08 -0.35,0.2 -0.48,0.36c-0.14,0.16 -0.24,0.35 -0.32,0.58c-0.07,0.23 -0.11,0.49 -0.11,0.78c0,0.29 0.04,0.55 0.11,0.78c0.08,0.23 0.18,0.43 0.32,0.59c0.13,0.16 0.29,0.29 0.48,0.37c0.19,0.09 0.4,0.14 0.62,0.14zm0,-0.4c-0.16,0 -0.3,-0.04 -0.43,-0.11c-0.13,-0.07 -0.24,-0.17 -0.34,-0.3c-0.09,-0.13 -0.16,-0.28 -0.21,-0.46c-0.05,-0.18 -0.08,-0.39 -0.08,-0.61c0,-0.23 0.03,-0.43 0.08,-0.61c0.05,-0.17 0.12,-0.33 0.21,-0.45c0.1,-0.12 0.21,-0.22 0.34,-0.29c0.13,-0.07 0.27,-0.1 0.43,-0.1c0.16,0 0.31,0.03 0.44,0.1c0.13,0.07 0.24,0.17 0.33,0.29c0.1,0.12 0.17,0.28 0.22,0.45c0.05,0.18 0.08,0.38 0.08,0.61c0,0.22 -0.03,0.43 -0.08,0.61c-0.05,0.18 -0.12,0.33 -0.22,0.46c-0.09,0.13 -0.2,0.23 -0.33,0.3c-0.13,0.07 -0.28,0.11 -0.44,0.11zm2.7,-2.88l0,3.21l0.46,0l0,-3.21l1.09,0l0,-0.38l-2.63,0l0,0.38l1.08,0zm1.95,-0.38l0,3.59l2.02,0l0,-0.39l-1.57,0l0,-3.2l-0.45,0zm2.41,0l0,3.59l0.46,0l0,-3.59l-0.46,0zm1.19,0l0,3.59l0.44,0l0,-1.88c0,-0.19 -0.01,-0.38 -0.02,-0.57c-0.02,-0.18 -0.03,-0.37 -0.04,-0.55l0.02,0l0.39,0.74l1.3,2.26l0.47,0l0,-3.59l-0.43,0l0,1.85c0,0.19 0.01,0.39 0.02,0.58c0.01,0.2 0.02,0.39 0.03,0.57l-0.02,0l-0.39,-0.75l-1.29,-2.25l-0.48,0zm5.69,2.13l-1.08,0l0.17,-0.55c0.06,-0.2 0.13,-0.4 0.18,-0.6c0.06,-0.2 0.12,-0.4 0.17,-0.61l0.03,0c0.05,0.21 0.11,0.41 0.17,0.61c0.06,0.2 0.12,0.4 0.19,0.6l0.17,0.55zm0.11,0.36l0.34,1.1l0.49,0l-1.22,-3.59l-0.51,0l-1.22,3.59l0.47,0l0.34,-1.1l1.31,0zm1.09,-2.49l0,3.59l0.43,0l0,-1.88c0,-0.19 0,-0.38 -0.02,-0.57c-0.01,-0.18 -0.02,-0.37 -0.04,-0.55l0.03,0l0.38,0.74l1.31,2.26l0.47,0l0,-3.59l-0.43,0l0,1.85c0,0.19 0,0.39 0.02,0.58c0.01,0.2 0.02,0.39 0.03,0.57l-0.02,0l-0.39,-0.75l-1.3,-2.25l-0.47,0zm3.3,0l0,3.59l0.92,0c0.27,0 0.51,-0.04 0.72,-0.12c0.2,-0.09 0.38,-0.2 0.52,-0.36c0.14,-0.15 0.25,-0.34 0.32,-0.57c0.08,-0.22 0.11,-0.48 0.11,-0.76c0,-0.58 -0.14,-1.02 -0.43,-1.32c-0.29,-0.31 -0.71,-0.46 -1.26,-0.46l-0.9,0zm0.86,3.22l-0.41,0l0,-2.85l0.41,0c0.42,0 0.74,0.12 0.95,0.36c0.21,0.24 0.31,0.59 0.31,1.05c0,0.45 -0.1,0.81 -0.31,1.06c-0.21,0.25 -0.53,0.38 -0.95,0.38zm2.91,-1.43c0,0.3 0.04,0.56 0.12,0.79c0.08,0.23 0.19,0.43 0.33,0.59c0.14,0.15 0.3,0.28 0.49,0.36c0.2,0.08 0.41,0.13 0.63,0.13c0.23,0 0.44,-0.05 0.62,-0.14c0.17,-0.09 0.33,-0.22 0.48,-0.38l-0.26,-0.28c-0.12,0.12 -0.24,0.22 -0.37,0.29c-0.13,0.07 -0.28,0.11 -0.46,0.11c-0.17,0 -0.32,-0.04 -0.46,-0.11c-0.14,-0.07 -0.25,-0.17 -0.35,-0.29c-0.09,-0.13 -0.17,-0.29 -0.22,-0.47c-0.05,-0.18 -0.08,-0.38 -0.08,-0.61c0,-0.22 0.03,-0.42 0.08,-0.6c0.06,-0.18 0.13,-0.33 0.23,-0.46c0.1,-0.12 0.22,-0.22 0.36,-0.29c0.14,-0.07 0.29,-0.1 0.46,-0.1c0.16,0 0.29,0.03 0.41,0.09c0.11,0.06 0.22,0.14 0.31,0.24l0.26,-0.29c-0.11,-0.11 -0.24,-0.22 -0.41,-0.31c-0.16,-0.08 -0.35,-0.13 -0.57,-0.13c-0.23,0 -0.44,0.04 -0.64,0.13c-0.19,0.09 -0.36,0.21 -0.51,0.37c-0.14,0.16 -0.25,0.36 -0.33,0.59c-0.08,0.23 -0.12,0.48 -0.12,0.77zm4.25,1.87c0.23,0 0.44,-0.05 0.63,-0.14c0.18,-0.08 0.35,-0.21 0.48,-0.37c0.14,-0.16 0.25,-0.36 0.32,-0.59c0.08,-0.23 0.11,-0.49 0.11,-0.78c0,-0.29 -0.03,-0.54 -0.11,-0.77c-0.07,-0.23 -0.18,-0.42 -0.32,-0.58c-0.13,-0.16 -0.3,-0.28 -0.48,-0.37c-0.19,-0.09 -0.4,-0.13 -0.63,-0.13c-0.22,0 -0.43,0.04 -0.62,0.13c-0.19,0.08 -0.35,0.2 -0.48,0.36c-0.14,0.16 -0.24,0.35 -0.32,0.58c-0.07,0.23 -0.11,0.49 -0.11,0.78c0,0.29 0.04,0.55 0.11,0.78c0.08,0.23 0.18,0.43 0.32,0.59c0.13,0.16 0.29,0.29 0.48,0.37c0.19,0.09 0.4,0.14 0.62,0.14zm0,-0.4c-0.16,0 -0.3,-0.04 -0.43,-0.11c-0.13,-0.07 -0.24,-0.17 -0.34,-0.3c-0.09,-0.13 -0.16,-0.28 -0.21,-0.46c-0.05,-0.18 -0.08,-0.39 -0.08,-0.61c0,-0.23 0.03,-0.43 0.08,-0.61c0.05,-0.17 0.12,-0.33 0.21,-0.45c0.1,-0.12 0.21,-0.22 0.34,-0.29c0.13,-0.07 0.27,-0.1 0.43,-0.1c0.17,0 0.31,0.03 0.44,0.1c0.13,0.07 0.24,0.17 0.33,0.29c0.1,0.12 0.17,0.28 0.22,0.45c0.05,0.18 0.08,0.38 0.08,0.61c0,0.22 -0.03,0.43 -0.08,0.61c-0.05,0.18 -0.12,0.33 -0.22,0.46c-0.09,0.13 -0.2,0.23 -0.33,0.3c-0.13,0.07 -0.27,0.11 -0.44,0.11zm2.52,-1.56l0,-1.34l0.61,0c0.28,0 0.49,0.05 0.64,0.15c0.15,0.09 0.23,0.26 0.23,0.49c0,0.24 -0.08,0.41 -0.23,0.53c-0.15,0.11 -0.36,0.17 -0.64,0.17l-0.61,0zm1.52,1.89l0.52,0l-0.91,-1.57c0.24,-0.06 0.44,-0.17 0.58,-0.34c0.15,-0.17 0.22,-0.39 0.22,-0.68c0,-0.18 -0.03,-0.34 -0.09,-0.47c-0.06,-0.12 -0.15,-0.23 -0.26,-0.31c-0.11,-0.08 -0.25,-0.14 -0.4,-0.17c-0.16,-0.04 -0.33,-0.05 -0.51,-0.05l-1.12,0l0,3.59l0.45,0l0,-1.52l0.65,0l0.87,1.52zm2.29,0.07c0.23,0 0.43,-0.05 0.62,-0.14c0.19,-0.08 0.35,-0.21 0.49,-0.37c0.14,-0.16 0.24,-0.36 0.32,-0.59c0.07,-0.23 0.11,-0.49 0.11,-0.78c0,-0.29 -0.04,-0.54 -0.11,-0.77c-0.08,-0.23 -0.18,-0.42 -0.32,-0.58c-0.14,-0.16 -0.3,-0.28 -0.49,-0.37c-0.19,-0.09 -0.39,-0.13 -0.62,-0.13c-0.23,0 -0.43,0.04 -0.62,0.13c-0.19,0.08 -0.35,0.2 -0.49,0.36c-0.13,0.16 -0.24,0.35 -0.31,0.58c-0.08,0.23 -0.11,0.49 -0.11,0.78c0,0.29 0.03,0.55 0.11,0.78c0.07,0.23 0.18,0.43 0.31,0.59c0.14,0.16 0.3,0.29 0.49,0.37c0.19,0.09 0.39,0.14 0.62,0.14zm0,-0.4c-0.16,0 -0.31,-0.04 -0.44,-0.11c-0.13,-0.07 -0.24,-0.17 -0.33,-0.3c-0.09,-0.13 -0.17,-0.28 -0.22,-0.46c-0.05,-0.18 -0.07,-0.39 -0.07,-0.61c0,-0.23 0.02,-0.43 0.07,-0.61c0.05,-0.17 0.13,-0.33 0.22,-0.45c0.09,-0.12 0.2,-0.22 0.33,-0.29c0.13,-0.07 0.28,-0.1 0.44,-0.1c0.16,0 0.3,0.03 0.43,0.1c0.13,0.07 0.25,0.17 0.34,0.29c0.09,0.12 0.16,0.28 0.21,0.45c0.06,0.18 0.08,0.38 0.08,0.61c0,0.22 -0.02,0.43 -0.08,0.61c-0.05,0.18 -0.12,0.33 -0.21,0.46c-0.09,0.13 -0.21,0.23 -0.34,0.3c-0.13,0.07 -0.27,0.11 -0.43,0.11zm2.05,-3.26l0,2.11c0,0.28 0.03,0.53 0.09,0.72c0.07,0.2 0.16,0.36 0.28,0.48c0.11,0.13 0.25,0.21 0.41,0.27c0.16,0.05 0.33,0.08 0.51,0.08c0.18,0 0.35,-0.03 0.51,-0.08c0.16,-0.06 0.29,-0.14 0.41,-0.27c0.11,-0.12 0.2,-0.28 0.27,-0.48c0.06,-0.19 0.1,-0.44 0.1,-0.72l0,-2.11l-0.44,0l0,2.12c0,0.21 -0.02,0.39 -0.07,0.54c-0.04,0.14 -0.1,0.26 -0.18,0.35c-0.07,0.09 -0.16,0.15 -0.27,0.19c-0.1,0.04 -0.21,0.06 -0.33,0.06c-0.12,0 -0.23,-0.02 -0.33,-0.06c-0.1,-0.04 -0.19,-0.1 -0.27,-0.19c-0.07,-0.09 -0.13,-0.21 -0.17,-0.35c-0.05,-0.15 -0.07,-0.33 -0.07,-0.54l0,-2.12l-0.45,0zm4.04,0.38l0,3.21l0.46,0l0,-3.21l1.09,0l0,-0.38l-2.63,0l0,0.38l1.08,0zm1.95,-0.38l0,3.59l0.45,0l0,-3.59l-0.45,0zm1.19,0l0,3.59l0.43,0l0,-1.88c0,-0.19 0,-0.38 -0.02,-0.57c-0.01,-0.18 -0.02,-0.37 -0.04,-0.55l0.02,0l0.39,0.74l1.31,2.26l0.47,0l0,-3.59l-0.44,0l0,1.85c0,0.19 0.01,0.39 0.02,0.58c0.02,0.2 0.03,0.39 0.04,0.57l-0.02,0l-0.39,-0.75l-1.3,-2.25l-0.47,0zm3.3,0l0,3.59l2.12,0l0,-0.39l-1.67,0l0,-1.3l1.36,0l0,-0.39l-1.36,0l0,-1.13l1.62,0l0,-0.38l-2.07,0zm2.65,2.81l-0.28,0.31c0.16,0.17 0.35,0.3 0.56,0.39c0.22,0.1 0.45,0.15 0.7,0.15c0.19,0 0.36,-0.03 0.51,-0.08c0.15,-0.06 0.28,-0.13 0.38,-0.22c0.11,-0.1 0.19,-0.2 0.25,-0.33c0.06,-0.12 0.08,-0.26 0.08,-0.4c0,-0.13 -0.02,-0.25 -0.05,-0.35c-0.04,-0.1 -0.09,-0.18 -0.16,-0.26c-0.07,-0.07 -0.14,-0.14 -0.24,-0.2c-0.09,-0.05 -0.18,-0.1 -0.29,-0.15l-0.51,-0.22c-0.07,-0.03 -0.14,-0.06 -0.21,-0.09c-0.07,-0.04 -0.13,-0.08 -0.19,-0.12c-0.06,-0.05 -0.11,-0.1 -0.14,-0.16c-0.04,-0.06 -0.05,-0.14 -0.05,-0.22c0,-0.17 0.06,-0.3 0.18,-0.39c0.12,-0.09 0.28,-0.14 0.49,-0.14c0.16,0 0.31,0.03 0.45,0.09c0.13,0.06 0.25,0.14 0.36,0.25l0.25,-0.3c-0.13,-0.13 -0.28,-0.23 -0.47,-0.32c-0.18,-0.08 -0.38,-0.12 -0.59,-0.12c-0.17,0 -0.32,0.02 -0.46,0.07c-0.13,0.05 -0.25,0.12 -0.35,0.2c-0.1,0.09 -0.18,0.19 -0.24,0.31c-0.05,0.11 -0.08,0.24 -0.08,0.37c0,0.14 0.02,0.25 0.06,0.35c0.05,0.1 0.1,0.19 0.17,0.26c0.07,0.07 0.15,0.14 0.24,0.19c0.09,0.05 0.17,0.09 0.26,0.13l0.51,0.22c0.08,0.04 0.16,0.08 0.24,0.12c0.07,0.04 0.13,0.08 0.19,0.12c0.05,0.05 0.09,0.1 0.12,0.17c0.03,0.06 0.05,0.14 0.05,0.23c0,0.17 -0.07,0.32 -0.2,0.42c-0.13,0.11 -0.32,0.17 -0.55,0.17c-0.19,0 -0.37,-0.05 -0.54,-0.13c-0.18,-0.08 -0.33,-0.19 -0.45,-0.32zm4.2,1.74l0,0l0.28,-0.13c-0.21,-0.35 -0.37,-0.72 -0.47,-1.12c-0.11,-0.4 -0.16,-0.81 -0.16,-1.23c0,-0.42 0.05,-0.83 0.16,-1.23c0.1,-0.4 0.26,-0.78 0.47,-1.13l-0.28,-0.13c-0.23,0.37 -0.4,0.76 -0.53,1.16c-0.13,0.4 -0.19,0.85 -0.19,1.33c0,0.48 0.06,0.92 0.19,1.33c0.13,0.4 0.3,0.79 0.53,1.15zm0.73,-4.55l0,3.59l0.46,0l0,-1.14l0.62,-0.73l1.07,1.87l0.51,0l-1.3,-2.22l1.12,-1.37l-0.51,0l-1.5,1.8l-0.01,0l0,-1.8l-0.46,0zm4.13,3.66c0.23,0 0.44,-0.05 0.62,-0.14c0.19,-0.08 0.35,-0.21 0.49,-0.37c0.14,-0.16 0.24,-0.36 0.32,-0.59c0.07,-0.23 0.11,-0.49 0.11,-0.78c0,-0.29 -0.04,-0.54 -0.11,-0.77c-0.08,-0.23 -0.18,-0.42 -0.32,-0.58c-0.14,-0.16 -0.3,-0.28 -0.49,-0.37c-0.18,-0.09 -0.39,-0.13 -0.62,-0.13c-0.22,0 -0.43,0.04 -0.62,0.13c-0.19,0.08 -0.35,0.2 -0.48,0.36c-0.14,0.16 -0.24,0.35 -0.32,0.58c-0.07,0.23 -0.11,0.49 -0.11,0.78c0,0.29 0.04,0.55 0.11,0.78c0.08,0.23 0.18,0.43 0.32,0.59c0.13,0.16 0.29,0.29 0.48,0.37c0.19,0.09 0.4,0.14 0.62,0.14zm0,-0.4c-0.16,0 -0.3,-0.04 -0.43,-0.11c-0.13,-0.07 -0.24,-0.17 -0.34,-0.3c-0.09,-0.13 -0.16,-0.28 -0.21,-0.46c-0.06,-0.18 -0.08,-0.39 -0.08,-0.61c0,-0.23 0.02,-0.43 0.08,-0.61c0.05,-0.17 0.12,-0.33 0.21,-0.45c0.1,-0.12 0.21,-0.22 0.34,-0.29c0.13,-0.07 0.27,-0.1 0.43,-0.1c0.16,0 0.31,0.03 0.44,0.1c0.13,0.07 0.24,0.17 0.33,0.29c0.09,0.12 0.17,0.28 0.22,0.45c0.05,0.18 0.07,0.38 0.07,0.61c0,0.22 -0.02,0.43 -0.07,0.61c-0.05,0.18 -0.13,0.33 -0.22,0.46c-0.09,0.13 -0.2,0.23 -0.33,0.3c-0.13,0.07 -0.28,0.11 -0.44,0.11zm2.7,-2.88l0,3.21l0.46,0l0,-3.21l1.09,0l0,-0.38l-2.63,0l0,0.38l1.08,0zm1.94,-0.38l0,3.59l2.03,0l0,-0.39l-1.57,0l0,-3.2l-0.46,0zm2.42,0l0,3.59l0.45,0l0,-3.59l-0.45,0zm1.19,0l0,3.59l0.43,0l0,-1.88c0,-0.19 0,-0.38 -0.01,-0.57c-0.02,-0.18 -0.03,-0.37 -0.05,-0.55l0.03,0l0.39,0.74l1.3,2.26l0.47,0l0,-3.59l-0.43,0l0,1.85c0,0.19 0,0.39 0.02,0.58c0.01,0.2 0.02,0.39 0.03,0.57l-0.02,0l-0.39,-0.75l-1.3,-2.25l-0.47,0zm3.93,1.73l-1.04,1.86l0.48,0l0.52,-0.97c0.04,-0.09 0.09,-0.18 0.14,-0.27c0.04,-0.09 0.09,-0.2 0.15,-0.3l0.02,0c0.06,0.1 0.11,0.21 0.16,0.3c0.05,0.09 0.1,0.18 0.14,0.27l0.53,0.97l0.5,0l-1.04,-1.84l0.98,-1.75l-0.48,0l-0.48,0.92c-0.04,0.08 -0.09,0.16 -0.12,0.24c-0.04,0.08 -0.09,0.17 -0.14,0.28l-0.02,0c-0.05,-0.11 -0.1,-0.2 -0.15,-0.28c-0.04,-0.08 -0.08,-0.16 -0.13,-0.24l-0.49,-0.92l-0.5,0l0.97,1.73zm1.79,1.59c0,0.09 0.04,0.18 0.1,0.24c0.06,0.06 0.14,0.1 0.23,0.1c0.09,0 0.17,-0.04 0.23,-0.1c0.06,-0.06 0.1,-0.15 0.1,-0.24c0,-0.11 -0.04,-0.19 -0.1,-0.26c-0.06,-0.06 -0.14,-0.09 -0.23,-0.09c-0.09,0 -0.17,0.03 -0.23,0.09c-0.06,0.07 -0.1,0.15 -0.1,0.26zm1.05,-1.53c0,0.3 0.04,0.56 0.12,0.79c0.08,0.23 0.18,0.43 0.33,0.59c0.14,0.15 0.3,0.28 0.49,0.36c0.2,0.08 0.4,0.13 0.63,0.13c0.23,0 0.44,-0.05 0.61,-0.14c0.18,-0.09 0.34,-0.22 0.49,-0.38l-0.26,-0.28c-0.12,0.12 -0.24,0.22 -0.37,0.29c-0.13,0.07 -0.28,0.11 -0.46,0.11c-0.17,0 -0.32,-0.04 -0.46,-0.11c-0.14,-0.07 -0.25,-0.17 -0.35,-0.29c-0.09,-0.13 -0.17,-0.29 -0.22,-0.47c-0.05,-0.18 -0.08,-0.38 -0.08,-0.61c0,-0.22 0.03,-0.42 0.08,-0.6c0.06,-0.18 0.13,-0.33 0.23,-0.46c0.1,-0.12 0.22,-0.22 0.36,-0.29c0.14,-0.07 0.29,-0.1 0.46,-0.1c0.16,0 0.29,0.03 0.41,0.09c0.11,0.06 0.22,0.14 0.31,0.24l0.26,-0.29c-0.11,-0.11 -0.24,-0.22 -0.41,-0.31c-0.16,-0.08 -0.35,-0.13 -0.57,-0.13c-0.23,0 -0.44,0.04 -0.64,0.13c-0.19,0.09 -0.36,0.21 -0.51,0.37c-0.14,0.16 -0.25,0.36 -0.33,0.59c-0.08,0.23 -0.12,0.48 -0.12,0.77zm4.25,1.87c0.23,0 0.44,-0.05 0.63,-0.14c0.18,-0.08 0.35,-0.21 0.48,-0.37c0.14,-0.16 0.25,-0.36 0.32,-0.59c0.08,-0.23 0.11,-0.49 0.11,-0.78c0,-0.29 -0.03,-0.54 -0.11,-0.77c-0.07,-0.23 -0.18,-0.42 -0.32,-0.58c-0.13,-0.16 -0.3,-0.28 -0.48,-0.37c-0.19,-0.09 -0.4,-0.13 -0.63,-0.13c-0.22,0 -0.43,0.04 -0.62,0.13c-0.19,0.08 -0.35,0.2 -0.48,0.36c-0.14,0.16 -0.24,0.35 -0.32,0.58c-0.07,0.23 -0.11,0.49 -0.11,0.78c0,0.29 0.04,0.55 0.11,0.78c0.08,0.23 0.18,0.43 0.32,0.59c0.13,0.16 0.29,0.29 0.48,0.37c0.19,0.09 0.4,0.14 0.62,0.14zm0,-0.4c-0.16,0 -0.3,-0.04 -0.43,-0.11c-0.13,-0.07 -0.24,-0.17 -0.34,-0.3c-0.09,-0.13 -0.16,-0.28 -0.21,-0.46c-0.05,-0.18 -0.08,-0.39 -0.08,-0.61c0,-0.23 0.03,-0.43 0.08,-0.61c0.05,-0.17 0.12,-0.33 0.21,-0.45c0.1,-0.12 0.21,-0.22 0.34,-0.29c0.13,-0.07 0.27,-0.1 0.43,-0.1c0.16,0 0.31,0.03 0.44,0.1c0.13,0.07 0.24,0.17 0.33,0.29c0.1,0.12 0.17,0.28 0.22,0.45c0.05,0.18 0.08,0.38 0.08,0.61c0,0.22 -0.03,0.43 -0.08,0.61c-0.05,0.18 -0.12,0.33 -0.22,0.46c-0.09,0.13 -0.2,0.23 -0.33,0.3c-0.13,0.07 -0.28,0.11 -0.44,0.11zm2.52,-1.56l0,-1.34l0.61,0c0.28,0 0.49,0.05 0.64,0.15c0.15,0.09 0.23,0.26 0.23,0.49c0,0.24 -0.08,0.41 -0.23,0.53c-0.15,0.11 -0.36,0.17 -0.64,0.17l-0.61,0zm1.52,1.89l0.51,0l-0.9,-1.57c0.24,-0.06 0.44,-0.17 0.58,-0.34c0.15,-0.17 0.22,-0.39 0.22,-0.68c0,-0.18 -0.03,-0.34 -0.09,-0.47c-0.06,-0.12 -0.15,-0.23 -0.26,-0.31c-0.11,-0.08 -0.25,-0.14 -0.4,-0.17c-0.16,-0.04 -0.33,-0.05 -0.51,-0.05l-1.12,0l0,3.59l0.45,0l0,-1.52l0.65,0l0.87,1.52zm2.29,0.07c0.22,0 0.43,-0.05 0.62,-0.14c0.19,-0.08 0.35,-0.21 0.49,-0.37c0.13,-0.16 0.24,-0.36 0.32,-0.59c0.07,-0.23 0.11,-0.49 0.11,-0.78c0,-0.29 -0.04,-0.54 -0.11,-0.77c-0.08,-0.23 -0.19,-0.42 -0.32,-0.58c-0.14,-0.16 -0.3,-0.28 -0.49,-0.37c-0.19,-0.09 -0.4,-0.13 -0.62,-0.13c-0.23,0 -0.44,0.04 -0.62,0.13c-0.19,0.08 -0.35,0.2 -0.49,0.36c-0.13,0.16 -0.24,0.35 -0.31,0.58c-0.08,0.23 -0.12,0.49 -0.12,0.78c0,0.29 0.04,0.55 0.12,0.78c0.07,0.23 0.18,0.43 0.31,0.59c0.14,0.16 0.3,0.29 0.49,0.37c0.18,0.09 0.39,0.14 0.62,0.14zm0,-0.4c-0.16,0 -0.31,-0.04 -0.44,-0.11c-0.13,-0.07 -0.24,-0.17 -0.33,-0.3c-0.09,-0.13 -0.17,-0.28 -0.22,-0.46c-0.05,-0.18 -0.07,-0.39 -0.07,-0.61c0,-0.23 0.02,-0.43 0.07,-0.61c0.05,-0.17 0.13,-0.33 0.22,-0.45c0.09,-0.12 0.2,-0.22 0.33,-0.29c0.13,-0.07 0.28,-0.1 0.44,-0.1c0.16,0 0.3,0.03 0.43,0.1c0.13,0.07 0.25,0.17 0.34,0.29c0.09,0.12 0.16,0.28 0.21,0.45c0.06,0.18 0.08,0.38 0.08,0.61c0,0.22 -0.02,0.43 -0.08,0.61c-0.05,0.18 -0.12,0.33 -0.21,0.46c-0.09,0.13 -0.21,0.23 -0.34,0.3c-0.13,0.07 -0.27,0.11 -0.43,0.11zm2.05,-3.26l0,2.11c0,0.28 0.03,0.53 0.09,0.72c0.07,0.2 0.16,0.36 0.28,0.48c0.11,0.13 0.25,0.21 0.41,0.27c0.16,0.05 0.33,0.08 0.51,0.08c0.18,0 0.35,-0.03 0.51,-0.08c0.16,-0.06 0.29,-0.14 0.41,-0.27c0.11,-0.12 0.2,-0.28 0.27,-0.48c0.06,-0.19 0.1,-0.44 0.1,-0.72l0,-2.11l-0.44,0l0,2.12c0,0.21 -0.02,0.39 -0.07,0.54c-0.04,0.14 -0.1,0.26 -0.18,0.35c-0.08,0.09 -0.16,0.15 -0.27,0.19c-0.1,0.04 -0.21,0.06 -0.33,0.06c-0.12,0 -0.23,-0.02 -0.33,-0.06c-0.1,-0.04 -0.19,-0.1 -0.27,-0.19c-0.07,-0.09 -0.13,-0.21 -0.17,-0.35c-0.05,-0.15 -0.07,-0.33 -0.07,-0.54l0,-2.12l-0.45,0zm4.04,0.38l0,3.21l0.46,0l0,-3.21l1.09,0l0,-0.38l-2.63,0l0,0.38l1.08,0zm1.95,-0.38l0,3.59l0.45,0l0,-3.59l-0.45,0zm1.19,0l0,3.59l0.43,0l0,-1.88c0,-0.19 0,-0.38 -0.02,-0.57c-0.01,-0.18 -0.02,-0.37 -0.04,-0.55l0.02,0l0.39,0.74l1.31,2.26l0.47,0l0,-3.59l-0.44,0l0,1.85c0,0.19 0.01,0.39 0.02,0.58c0.02,0.2 0.03,0.39 0.04,0.57l-0.02,0l-0.39,-0.75l-1.3,-2.25l-0.47,0zm3.3,0l0,3.59l2.12,0l0,-0.39l-1.67,0l0,-1.3l1.36,0l0,-0.39l-1.36,0l0,-1.13l1.62,0l0,-0.38l-2.07,0zm2.65,2.81l-0.28,0.31c0.16,0.17 0.34,0.3 0.56,0.39c0.22,0.1 0.45,0.15 0.7,0.15c0.19,0 0.36,-0.03 0.51,-0.08c0.15,-0.06 0.28,-0.13 0.38,-0.22c0.11,-0.1 0.19,-0.2 0.25,-0.33c0.05,-0.12 0.08,-0.26 0.08,-0.4c0,-0.13 -0.02,-0.25 -0.05,-0.35c-0.04,-0.1 -0.09,-0.18 -0.16,-0.26c-0.07,-0.07 -0.14,-0.14 -0.24,-0.2c-0.09,-0.05 -0.18,-0.1 -0.29,-0.15l-0.51,-0.22c-0.07,-0.03 -0.14,-0.06 -0.21,-0.09c-0.07,-0.04 -0.13,-0.08 -0.19,-0.12c-0.06,-0.05 -0.11,-0.1 -0.14,-0.16c-0.04,-0.06 -0.05,-0.14 -0.05,-0.22c0,-0.17 0.06,-0.3 0.18,-0.39c0.12,-0.09 0.28,-0.14 0.49,-0.14c0.16,0 0.31,0.03 0.45,0.09c0.13,0.06 0.25,0.14 0.36,0.25l0.25,-0.3c-0.13,-0.13 -0.28,-0.23 -0.47,-0.32c-0.18,-0.08 -0.38,-0.12 -0.59,-0.12c-0.17,0 -0.32,0.02 -0.46,0.07c-0.13,0.05 -0.25,0.12 -0.35,0.2c-0.1,0.09 -0.18,0.19 -0.24,0.31c-0.05,0.11 -0.08,0.24 -0.08,0.37c0,0.14 0.02,0.25 0.06,0.35c0.05,0.1 0.1,0.19 0.17,0.26c0.07,0.07 0.15,0.14 0.24,0.19c0.09,0.05 0.17,0.09 0.26,0.13l0.51,0.22c0.08,0.04 0.16,0.08 0.24,0.12c0.07,0.04 0.13,0.08 0.19,0.12c0.05,0.05 0.09,0.1 0.12,0.17c0.03,0.06 0.05,0.14 0.05,0.23c0,0.17 -0.07,0.32 -0.2,0.42c-0.13,0.11 -0.32,0.17 -0.55,0.17c-0.19,0 -0.37,-0.05 -0.54,-0.13c-0.18,-0.08 -0.33,-0.19 -0.45,-0.32zm2.38,1.61l0,0l0.28,0.13c0.22,-0.36 0.4,-0.75 0.53,-1.15c0.13,-0.41 0.19,-0.85 0.19,-1.33c0,-0.48 -0.06,-0.93 -0.19,-1.33c-0.13,-0.4 -0.31,-0.79 -0.53,-1.16l-0.28,0.13c0.21,0.35 0.37,0.73 0.47,1.13c0.11,0.4 0.16,0.81 0.16,1.23c0,0.42 -0.05,0.83 -0.16,1.23c-0.1,0.4 -0.26,0.77 -0.47,1.12zm1.56,-1.1c0,0.09 0.03,0.18 0.09,0.24c0.07,0.06 0.14,0.1 0.24,0.1c0.08,0 0.16,-0.04 0.22,-0.1c0.07,-0.06 0.1,-0.15 0.1,-0.24c0,-0.11 -0.03,-0.19 -0.1,-0.26c-0.06,-0.06 -0.14,-0.09 -0.22,-0.09c-0.1,0 -0.17,0.03 -0.24,0.09c-0.06,0.07 -0.09,0.15 -0.09,0.26z" id="svg_28" transform="translate(-0.493021 4.00991)"/>
        </g>
       </g>
      </g>
     </g>
    </g>
    <!---->
   </g>
  </g>
 </g>
</svg>
